#N canvas 0 0 1920 989 12;
#X declare -path lib -lib lib;
#X obj 21 15 declare -path lib -lib lib;
#N canvas 227 269 450 300 kicks 0;
#X obj 190 98 pdcontrol;
#X msg 190 70 dir;
#X obj 190 43 bng 15 250 50 0 empty empty empty 17 7 0 10 #fcfcfc #000000 #000000;
#X obj 229 45 loadbang;
#X obj 84 210 playdir2~;
#X msg 189 125 \$1/sounds/kicks;
#X obj 41 23 inlet;
#X obj 84 235 outlet~;
#X connect 0 0 5 0;
#X connect 1 0 0 0;
#X connect 2 0 1 0;
#X connect 3 0 2 0;
#X connect 4 0 7 0;
#X connect 5 0 4 1;
#X connect 6 0 4 0;
#X restore 51 845 pd kicks;
#X obj 76 891 *~ 0.8;
#X obj 76 920 dac~;
#N canvas 231 293 450 300 snares 0;
#X obj 190 98 pdcontrol;
#X msg 190 70 dir;
#X obj 190 43 bng 15 250 50 0 empty empty empty 17 7 0 10 #fcfcfc #000000 #000000;
#X obj 229 45 loadbang;
#X obj 84 210 playdir2~;
#X obj 41 23 inlet;
#X obj 84 235 outlet~;
#X msg 189 125 \$1/sounds/snares;
#X connect 0 0 7 0;
#X connect 1 0 0 0;
#X connect 2 0 1 0;
#X connect 3 0 2 0;
#X connect 4 0 6 0;
#X connect 5 0 4 0;
#X connect 7 0 4 1;
#X restore 119 845 pd snares;
#N canvas 235 317 450 300 claps 0;
#X obj 190 98 pdcontrol;
#X msg 190 70 dir;
#X obj 190 43 bng 15 250 50 0 empty empty empty 17 7 0 10 #fcfcfc #000000 #000000;
#X obj 229 45 loadbang;
#X obj 84 210 playdir2~;
#X obj 41 23 inlet;
#X obj 84 235 outlet~;
#X msg 189 125 \$1/sounds/claps;
#X connect 0 0 7 0;
#X connect 1 0 0 0;
#X connect 2 0 1 0;
#X connect 3 0 2 0;
#X connect 4 0 6 0;
#X connect 5 0 4 0;
#X connect 7 0 4 1;
#X restore 191 845 pd claps;
#N canvas 247 389 450 300 hihats 0;
#X obj 190 98 pdcontrol;
#X msg 190 70 dir;
#X obj 190 43 bng 15 250 50 0 empty empty empty 17 7 0 10 #fcfcfc #000000 #000000;
#X obj 229 45 loadbang;
#X obj 84 210 playdir2~;
#X obj 41 23 inlet;
#X obj 84 235 outlet~;
#X msg 189 125 \$1/sounds/hihats;
#X connect 0 0 7 0;
#X connect 1 0 0 0;
#X connect 2 0 1 0;
#X connect 3 0 2 0;
#X connect 4 0 6 0;
#X connect 5 0 4 0;
#X connect 7 0 4 1;
#X restore 254 845 pd hihats;
#N canvas 251 413 450 300 openhihats 0;
#X obj 190 98 pdcontrol;
#X msg 190 70 dir;
#X obj 190 43 bng 15 250 50 0 empty empty empty 17 7 0 10 #fcfcfc #000000 #000000;
#X obj 229 45 loadbang;
#X obj 84 210 playdir2~;
#X obj 41 23 inlet;
#X obj 84 235 outlet~;
#X msg 189 125 \$1/sounds/openhihats;
#X connect 0 0 7 0;
#X connect 1 0 0 0;
#X connect 2 0 1 0;
#X connect 3 0 2 0;
#X connect 4 0 6 0;
#X connect 5 0 4 0;
#X connect 7 0 4 1;
#X restore 326 847 pd openhihats;
#N canvas 259 461 450 300 cymbals 0;
#X obj 190 98 pdcontrol;
#X msg 190 70 dir;
#X obj 190 43 bng 15 250 50 0 empty empty empty 17 7 0 10 #fcfcfc #000000 #000000;
#X obj 229 45 loadbang;
#X obj 84 210 playdir2~;
#X obj 41 23 inlet;
#X obj 84 235 outlet~;
#X msg 189 125 \$1/sounds/cymbals;
#X connect 0 0 7 0;
#X connect 1 0 0 0;
#X connect 2 0 1 0;
#X connect 3 0 2 0;
#X connect 4 0 6 0;
#X connect 5 0 4 0;
#X connect 7 0 4 1;
#X restore 423 847 pd cymbals;
#X obj 529 422 mseq, f 14;
#X obj 36 504 bng 20 250 50 0 empty empty empty 0 -10 0 12 #fcfcfc #000000 #000000;
#X obj 39 418 tgl 20 0 empty empty empty 0 -10 0 12 #fcfcfc #000000 #000000 0 1;
#X obj 499 444 bng 20 250 50 0 empty empty empty 0 -10 0 12 #fcfcfc #000000 #000000;
#X msg 651 372 -;
#X listbox 589 327 73 0 0 0 - - - 0;
#X floatatom 529 447 5 0 0 0 - - - 0;
#X msg 639 101 list - - - scramble [ 1 - - 2 3 4 ] - - - scramble [ 1 - - 2 3 ], f 66;
#X msg 612 68 list - 1 2 3 4 - 7*3 8 9 - - - 2 3 4 9 9;
#X msg 579 38 list 2 - 7*3 [ 2 2 ]*3 [ - - 9 - ]*1 - [ 2 3 4 9 9 ]*3;
#X msg 708 182 list - [ 1 2 3 ]*11 -;
#X msg 679 148 list - - -*3 - 5 - - - 6*7 7 - - 8*3 -;
#X obj 594 298 mixtape;
#X msg 569 -4 list 99;
#X msg 549 -32 list - [2 3 4 5]*4;
#X floatatom 101 452 5 0 0 0 - - - 0;
#X obj 1163 411 mseq, f 14;
#X obj 1131 435 bng 20 250 50 0 empty empty empty 0 -10 0 12 #fcfcfc #000000 #000000;
#X msg 1216 384 -;
#X floatatom 1163 436 5 0 0 0 - - - 0;
#X listbox 1260 384 73 0 0 0 - - - 0;
#X obj 1265 355 mixtape;
#X obj 36 529 s clock;
#X obj 525 395 r clock;
#X obj 1157 382 r clock;
#X obj 51 817 r kick;
#X obj 122 818 r snare;
#X obj 194 817 r clap;
#X obj 255 818 r hihat;
#X obj 328 820 r openhihat;
#X obj 426 818 r cymbal;
#X obj 63 745 s kick;
#X obj 330 742 s snare;
#X obj 685 755 s clap;
#X obj 1041 739 s hihat;
#X obj 1395 767 s openhihat;
#X obj 1395 603 s cymbal;
#X obj 31 713 bng 20 250 50 0 empty empty empty 0 -10 0 12 #fcfcfc #000000 #000000;
#X msg 116 662 -;
#X floatatom 63 714 5 0 0 0 - - - 0;
#X obj 57 660 r clock;
#X obj 157 633 mixtape;
#X obj 298 704 bng 20 250 50 0 empty empty empty 0 -10 0 12 #fcfcfc #000000 #000000;
#X msg 383 653 -;
#X floatatom 330 705 5 0 0 0 - - - 0;
#X obj 324 651 r clock;
#X obj 424 624 mixtape;
#X listbox 427 655 33 0 0 0 - - - 0;
#X listbox 151 663 19 0 0 0 - - - 0;
#X obj 687 701 mseq, f 14;
#X obj 655 725 bng 20 250 50 0 empty empty empty 0 -10 0 12 #fcfcfc #000000 #000000;
#X msg 767 583 -;
#X floatatom 687 726 5 0 0 0 - - - 0;
#X obj 681 672 r clock;
#X obj 781 645 mixtape;
#X listbox 764 735 33 0 0 0 - - - 0;
#X obj 1009 683 bng 20 250 50 0 empty empty empty 0 -10 0 12 #fcfcfc #000000 #000000;
#X msg 1094 632 -;
#X floatatom 1041 684 5 0 0 0 - - - 0;
#X obj 1035 630 r clock;
#X obj 1135 603 mixtape;
#X listbox 1138 634 33 0 0 0 - - - 0;
#X obj 1395 671 mseq, f 14;
#X obj 1363 695 bng 20 250 50 0 empty empty empty 0 -10 0 12 #fcfcfc #000000 #000000;
#X msg 1448 644 -;
#X floatatom 1395 696 5 0 0 0 - - - 0;
#X obj 1389 642 r clock;
#X obj 1489 615 mixtape;
#X listbox 1492 646 33 0 0 0 - - - 0;
#X obj 1395 550 mseq, f 14;
#X obj 1363 574 bng 20 250 50 0 empty empty empty 0 -10 0 12 #fcfcfc #000000 #000000;
#X msg 1448 523 -;
#X floatatom 1395 575 5 0 0 0 - - - 0;
#X obj 1389 521 r clock;
#X obj 1489 494 mixtape;
#X listbox 1491 525 33 0 0 0 - - - 0;
#X msg 530 -57 list - 4 -*77;
#X obj 1161 460 s clap;
#X obj 40 480 metro 101;
#X msg 388 81 list [ 1 2 3 ]*3 -*11;
#X obj 529 475 s hihat;
#X msg 736 248 list - [1 2 3 ]*3 - [ 9 8 7 ] -*6;
#X msg 1302 317 list -*4 [ 1 - - 2 - 3 ]*11 -*4;
#X msg 724 216 list -*11 2;
#X msg 1268 281 list - - -*3 - 5;
#X msg 155 607 4 -*3;
#X msg 781 616 -*7 6 -*5;
#X msg 1135 574 2*3 -*3 0*7;
#X msg 1489 586 9 -*7;
#X msg 1489 465 1 -*5 3 -*11 3*3;
#X msg 144 577 4 -*7;
#X obj 1041 659 js mseq2.js, f 14;
#X obj 63 689 js mseq2.js, f 14;
#X obj 330 680 js mseq2.js, f 14;
#X msg 440 587 - - - - - 7 - -;
#X msg 420 553 -*5 7 -*2;
#X connect 1 0 2 0;
#X connect 2 0 3 0;
#X connect 2 0 3 1;
#X connect 4 0 2 0;
#X connect 5 0 2 0;
#X connect 6 0 2 0;
#X connect 7 0 2 0;
#X connect 8 0 2 0;
#X connect 9 0 12 0;
#X connect 9 0 15 0;
#X connect 10 0 31 0;
#X connect 11 0 87 0;
#X connect 13 0 9 1;
#X connect 14 0 9 1;
#X connect 15 0 89 0;
#X connect 16 0 21 0;
#X connect 17 0 21 0;
#X connect 18 0 21 0;
#X connect 19 0 21 0;
#X connect 20 0 21 0;
#X connect 21 0 14 0;
#X connect 22 0 21 0;
#X connect 23 0 21 0;
#X connect 24 0 87 1;
#X connect 25 0 26 0;
#X connect 25 0 28 0;
#X connect 27 0 25 1;
#X connect 28 0 86 0;
#X connect 29 0 25 1;
#X connect 30 0 29 0;
#X connect 32 0 9 0;
#X connect 33 0 25 0;
#X connect 34 0 1 0;
#X connect 35 0 4 0;
#X connect 36 0 5 0;
#X connect 37 0 6 0;
#X connect 38 0 7 0;
#X connect 39 0 8 0;
#X connect 47 0 101 1;
#X connect 48 0 40 0;
#X connect 49 0 101 0;
#X connect 50 0 57 0;
#X connect 52 0 102 1;
#X connect 53 0 41 0;
#X connect 54 0 102 0;
#X connect 55 0 56 0;
#X connect 56 0 102 1;
#X connect 57 0 101 1;
#X connect 58 0 59 0;
#X connect 58 0 61 0;
#X connect 60 0 58 1;
#X connect 61 0 42 0;
#X connect 62 0 58 0;
#X connect 63 0 64 0;
#X connect 64 0 58 1;
#X connect 66 0 100 1;
#X connect 67 0 43 0;
#X connect 68 0 100 0;
#X connect 69 0 70 0;
#X connect 70 0 100 1;
#X connect 71 0 72 0;
#X connect 71 0 74 0;
#X connect 73 0 71 1;
#X connect 74 0 44 0;
#X connect 75 0 71 0;
#X connect 76 0 77 0;
#X connect 77 0 71 1;
#X connect 78 0 79 0;
#X connect 78 0 81 0;
#X connect 80 0 78 1;
#X connect 81 0 45 0;
#X connect 82 0 78 0;
#X connect 83 0 84 0;
#X connect 84 0 78 1;
#X connect 85 0 21 0;
#X connect 87 0 10 0;
#X connect 88 0 21 0;
#X connect 90 0 21 0;
#X connect 91 0 30 0;
#X connect 92 0 21 0;
#X connect 93 0 30 0;
#X connect 94 0 50 0;
#X connect 95 0 63 0;
#X connect 96 0 69 0;
#X connect 97 0 76 0;
#X connect 98 0 83 0;
#X connect 99 0 50 0;
#X connect 100 0 65 0;
#X connect 100 0 67 0;
#X connect 101 0 46 0;
#X connect 101 0 48 0;
#X connect 102 0 51 0;
#X connect 102 0 53 0;
#X connect 103 0 55 0;
#X connect 104 0 55 0;
