#N canvas 44 162 1183 733 12;
#X declare -path lib -lib lib;
#X obj 12 22 declare -path lib -lib lib;
#N canvas 227 269 450 300 kicks 0;
#X obj 190 98 pdcontrol;
#X msg 190 70 dir;
#X obj 190 43 bng 15 250 50 0 empty empty empty 17 7 0 10 #fcfcfc #000000 #000000;
#X obj 229 45 loadbang;
#X obj 84 210 playdir2~;
#X msg 189 125 \$1/sounds/kicks;
#X obj 41 23 inlet;
#X obj 84 235 outlet~;
#X connect 0 0 5 0;
#X connect 1 0 0 0;
#X connect 2 0 1 0;
#X connect 3 0 2 0;
#X connect 4 0 7 0;
#X connect 5 0 4 1;
#X connect 6 0 4 0;
#X restore 64 1398 pd kicks;
#X obj 89 1444 *~ 0.8;
#X obj 89 1473 dac~;
#N canvas 231 293 450 300 snares 0;
#X obj 190 98 pdcontrol;
#X msg 190 70 dir;
#X obj 190 43 bng 15 250 50 0 empty empty empty 17 7 0 10 #fcfcfc #000000 #000000;
#X obj 229 45 loadbang;
#X obj 84 210 playdir2~;
#X obj 41 23 inlet;
#X obj 84 235 outlet~;
#X msg 189 125 \$1/sounds/snares;
#X connect 0 0 7 0;
#X connect 1 0 0 0;
#X connect 2 0 1 0;
#X connect 3 0 2 0;
#X connect 4 0 6 0;
#X connect 5 0 4 0;
#X connect 7 0 4 1;
#X restore 132 1398 pd snares;
#N canvas 235 317 450 300 claps 0;
#X obj 190 98 pdcontrol;
#X msg 190 70 dir;
#X obj 190 43 bng 15 250 50 0 empty empty empty 17 7 0 10 #fcfcfc #000000 #000000;
#X obj 229 45 loadbang;
#X obj 84 210 playdir2~;
#X obj 41 23 inlet;
#X obj 84 235 outlet~;
#X msg 189 125 \$1/sounds/claps;
#X connect 0 0 7 0;
#X connect 1 0 0 0;
#X connect 2 0 1 0;
#X connect 3 0 2 0;
#X connect 4 0 6 0;
#X connect 5 0 4 0;
#X connect 7 0 4 1;
#X restore 204 1398 pd claps;
#N canvas 247 389 450 300 hihats 0;
#X obj 190 98 pdcontrol;
#X msg 190 70 dir;
#X obj 190 43 bng 15 250 50 0 empty empty empty 17 7 0 10 #fcfcfc #000000 #000000;
#X obj 229 45 loadbang;
#X obj 84 210 playdir2~;
#X obj 41 23 inlet;
#X obj 84 235 outlet~;
#X msg 189 125 \$1/sounds/hihats;
#X connect 0 0 7 0;
#X connect 1 0 0 0;
#X connect 2 0 1 0;
#X connect 3 0 2 0;
#X connect 4 0 6 0;
#X connect 5 0 4 0;
#X connect 7 0 4 1;
#X restore 267 1398 pd hihats;
#N canvas 251 413 450 300 openhihats 0;
#X obj 190 98 pdcontrol;
#X msg 190 70 dir;
#X obj 190 43 bng 15 250 50 0 empty empty empty 17 7 0 10 #fcfcfc #000000 #000000;
#X obj 229 45 loadbang;
#X obj 84 210 playdir2~;
#X obj 41 23 inlet;
#X obj 84 235 outlet~;
#X msg 189 125 \$1/sounds/openhihats;
#X connect 0 0 7 0;
#X connect 1 0 0 0;
#X connect 2 0 1 0;
#X connect 3 0 2 0;
#X connect 4 0 6 0;
#X connect 5 0 4 0;
#X connect 7 0 4 1;
#X restore 339 1400 pd openhihats;
#N canvas 259 461 450 300 cymbals 0;
#X obj 190 98 pdcontrol;
#X msg 190 70 dir;
#X obj 190 43 bng 15 250 50 0 empty empty empty 17 7 0 10 #fcfcfc #000000 #000000;
#X obj 229 45 loadbang;
#X obj 84 210 playdir2~;
#X obj 41 23 inlet;
#X obj 84 235 outlet~;
#X msg 189 125 \$1/sounds/cymbals;
#X connect 0 0 7 0;
#X connect 1 0 0 0;
#X connect 2 0 1 0;
#X connect 3 0 2 0;
#X connect 4 0 6 0;
#X connect 5 0 4 0;
#X connect 7 0 4 1;
#X restore 436 1400 pd cymbals;
#X obj 58 181 bng 20 250 50 0 empty empty empty 0 -10 0 12 #fcfcfc #000000 #000000;
#X obj 61 95 tgl 20 0 empty empty empty 0 -10 0 12 #fcfcfc #000000 #000000 0 1;
#X obj 512 997 bng 20 250 50 0 empty empty empty 0 -10 0 12 #fcfcfc #000000 #000000;
#X msg 542 804 -;
#X listbox 602 880 73 0 0 0 - - - 0;
#X floatatom 542 1000 5 0 0 0 - - - 0;
#X obj 607 851 mixtape;
#X floatatom 123 129 5 0 0 0 - - - 0;
#X obj 1176 964 mseq, f 14;
#X obj 1144 988 bng 20 250 50 0 empty empty empty 0 -10 0 12 #fcfcfc #000000 #000000;
#X msg 1229 937 -;
#X floatatom 1176 989 5 0 0 0 - - - 0;
#X listbox 1273 937 73 0 0 0 - - - 0;
#X obj 1278 908 mixtape;
#X obj 58 206 s clock;
#X obj 538 948 r clock;
#X obj 1170 935 r clock;
#X obj 64 1370 r kick;
#X obj 135 1371 r snare;
#X obj 207 1370 r clap;
#X obj 268 1371 r hihat;
#X obj 341 1373 r openhihat;
#X obj 439 1371 r cymbal;
#X obj 76 1298 s kick;
#X obj 343 1295 s snare;
#X obj 698 1308 s clap;
#X obj 1054 1292 s hihat;
#X obj 1408 1320 s openhihat;
#X obj 1408 1156 s cymbal;
#X obj 44 1266 bng 20 250 50 0 empty empty empty 0 -10 0 12 #fcfcfc #000000 #000000;
#X floatatom 76 1267 5 0 0 0 - - - 0;
#X obj 70 1213 r clock;
#X obj 170 1186 mixtape;
#X obj 311 1257 bng 20 250 50 0 empty empty empty 0 -10 0 12 #fcfcfc #000000 #000000;
#X floatatom 343 1258 5 0 0 0 - - - 0;
#X obj 337 1204 r clock;
#X obj 437 1177 mixtape;
#X listbox 440 1208 33 0 0 0 - - - 0;
#X listbox 164 1216 19 0 0 0 - - - 0;
#X obj 668 1278 bng 20 250 50 0 empty empty empty 0 -10 0 12 #fcfcfc #000000 #000000;
#X msg 780 1136 -;
#X floatatom 700 1279 5 0 0 0 - - - 0;
#X obj 694 1225 r clock;
#X obj 794 1198 mixtape;
#X listbox 777 1288 33 0 0 0 - - - 0;
#X obj 1022 1236 bng 20 250 50 0 empty empty empty 0 -10 0 12 #fcfcfc #000000 #000000;
#X msg 1107 1185 -;
#X floatatom 1054 1237 5 0 0 0 - - - 0;
#X obj 1048 1183 r clock;
#X obj 1148 1156 mixtape;
#X listbox 1151 1187 33 0 0 0 - - - 0;
#X obj 1376 1248 bng 20 250 50 0 empty empty empty 0 -10 0 12 #fcfcfc #000000 #000000;
#X floatatom 1408 1249 5 0 0 0 - - - 0;
#X obj 1402 1195 r clock;
#X obj 1502 1168 mixtape;
#X listbox 1505 1199 33 0 0 0 - - - 0;
#X obj 1408 1103 mseq, f 14;
#X obj 1376 1127 bng 20 250 50 0 empty empty empty 0 -10 0 12 #fcfcfc #000000 #000000;
#X msg 1450 1010 -;
#X floatatom 1408 1128 5 0 0 0 - - - 0;
#X obj 1402 1074 r clock;
#X obj 1502 1047 mixtape;
#X listbox 1504 1078 33 0 0 0 - - - 0;
#X obj 1174 1013 s clap;
#X obj 62 157 metro 101;
#X obj 542 1028 s hihat;
#X msg 615 816 list - [1 2 3 ]*3 - [ 9 8 7 ] -*6;
#X msg 1315 870 list -*4 [ 1 - - 2 - 3 ]*11 -*4;
#X msg 1281 834 list - - -*3 - 5;
#X msg 168 1160 4 -*3;
#X msg 441 1151 -*3 7 -*3;
#X msg 794 1169 -*7 6 -*5;
#X msg 1148 1127 2*3 -*3 0*7;
#X msg 1502 1139 9 -*7;
#X msg 1502 1018 1 -*5 3 -*11 3*3;
#X msg 157 1130 4 -*7;
#X obj 810 465 squarepoly~;
#X obj 232 255 heavybass~, f 12;
#X obj 231 309 throw~ m;
#X obj 28 1348 catch~ m;
#X floatatom 232 227 5 0 0 0 - - - 0;
#X obj 232 280 *~ 0.5;
#X obj 200 201 bng 20 250 50 0 empty empty empty 0 -10 0 12 #fcfcfc #000000 #000000;
#X msg 266 97 -;
#X floatatom 232 202 5 0 0 0 - - - 0;
#X listbox 329 150 36 0 0 0 - - - 0;
#X obj 334 121 mixtape;
#X obj 226 148 r clock;
#X obj 811 519 throw~ m;
#X obj 811 492 *~ 0.5;
#X msg 368 85 list offset40 [ 1 - - 2 - 3 -*4 ];
#X msg 804 70 -;
#X listbox 866 138 32 0 0 0 - - - 0;
#X obj 871 109 mixtape;
#X obj 763 136 r clock;
#X obj 699 1254 js mseq2.js, f 14;
#X obj 1054 1212 js mseq2.js, f 14;
#X obj 1408 1224 js mseq2.js, f 14;
#X obj 343 1233 js mseq2.js, f 14;
#X obj 76 1242 js mseq2.js, f 14;
#X obj 542 975 js mseq2.js, f 14;
#X obj 769 165 js mseq2.js, f 14;
#X obj 232 176 js mseq2.js, f 14;
#X msg 345 59 list offset40 [ 4 5 6 ] - - -, f 32;
#X msg 870 43 list 1 -*3 4 -*15 4 -*3;
#X floatatom 886 416 5 0 0 0 - - - 0;
#X msg 113 1129 -;
#X msg 406 1118 -;
#X msg 1113 1126 -;
#X msg 1579 1153 -;
#X listbox 876 325 20 0 0 0 - - - 0;
#X msg 899 75 list offset9 [4 -*7];
#X obj 810 299 chord_bank;
#X connect 1 0 2 0;
#X connect 2 0 3 0;
#X connect 2 0 3 1;
#X connect 4 0 2 0;
#X connect 5 0 2 0;
#X connect 6 0 2 0;
#X connect 7 0 2 0;
#X connect 8 0 2 0;
#X connect 9 0 23 0;
#X connect 10 0 73 0;
#X connect 12 0 15 0;
#X connect 13 0 109 1;
#X connect 14 0 74 0;
#X connect 15 0 13 0;
#X connect 16 0 73 1;
#X connect 17 0 18 0;
#X connect 17 0 20 0;
#X connect 19 0 17 1;
#X connect 20 0 72 0;
#X connect 21 0 17 1;
#X connect 22 0 21 0;
#X connect 24 0 109 0;
#X connect 25 0 17 0;
#X connect 26 0 1 0;
#X connect 27 0 4 0;
#X connect 28 0 5 0;
#X connect 29 0 6 0;
#X connect 30 0 7 0;
#X connect 31 0 8 0;
#X connect 39 0 32 0;
#X connect 40 0 108 0;
#X connect 41 0 47 0;
#X connect 43 0 33 0;
#X connect 44 0 107 0;
#X connect 45 0 46 0;
#X connect 46 0 107 1;
#X connect 47 0 108 1;
#X connect 49 0 52 0;
#X connect 50 0 34 0;
#X connect 51 0 104 0;
#X connect 52 0 53 0;
#X connect 53 0 104 1;
#X connect 55 0 105 1;
#X connect 56 0 35 0;
#X connect 57 0 105 0;
#X connect 58 0 59 0;
#X connect 59 0 105 1;
#X connect 61 0 36 0;
#X connect 62 0 106 0;
#X connect 63 0 64 0;
#X connect 64 0 106 1;
#X connect 65 0 66 0;
#X connect 65 0 68 0;
#X connect 67 0 70 0;
#X connect 68 0 37 0;
#X connect 69 0 65 0;
#X connect 70 0 71 0;
#X connect 71 0 65 1;
#X connect 73 0 9 0;
#X connect 75 0 15 0;
#X connect 76 0 22 0;
#X connect 77 0 22 0;
#X connect 78 0 41 0;
#X connect 79 0 45 0;
#X connect 80 0 52 0;
#X connect 81 0 58 0;
#X connect 82 0 63 0;
#X connect 83 0 70 0;
#X connect 84 0 41 0;
#X connect 85 0 98 0;
#X connect 86 0 90 0;
#X connect 88 0 2 0;
#X connect 89 0 86 0;
#X connect 90 0 87 0;
#X connect 92 0 95 0;
#X connect 93 0 89 0;
#X connect 94 0 111 1;
#X connect 95 0 94 0;
#X connect 96 0 111 0;
#X connect 98 0 97 0;
#X connect 99 0 95 0;
#X connect 100 0 102 0;
#X connect 101 0 110 1;
#X connect 102 0 101 0;
#X connect 103 0 110 0;
#X connect 104 0 48 0;
#X connect 104 0 50 0;
#X connect 105 0 54 0;
#X connect 105 0 56 0;
#X connect 106 0 60 0;
#X connect 106 0 61 0;
#X connect 107 0 42 0;
#X connect 107 0 43 0;
#X connect 108 0 38 0;
#X connect 108 0 39 0;
#X connect 109 0 11 0;
#X connect 109 0 14 0;
#X connect 110 0 121 0;
#X connect 111 0 91 0;
#X connect 111 0 93 0;
#X connect 112 0 95 0;
#X connect 113 0 102 0;
#X connect 114 0 85 1;
#X connect 115 0 41 0;
#X connect 116 0 45 0;
#X connect 117 0 58 0;
#X connect 118 0 63 0;
#X connect 120 0 102 0;
#X connect 121 0 85 0;
#X connect 121 0 89 0;
#X connect 121 1 119 0;
