#N canvas 505 161 1015 706 12;
#X msg 100 150 list @pyramid begin 19 20 end @reverse begin 21 22 end 23*11;
#X msg 212 313 list 5 - - - - - - 7*2 - -;
#X msg 195 269 list @scramble 5 6 7 8 - - - -;
#X msg 173 233 list @scramble 5 6 7 8 - - - -;
#X msg 137 192 list 7 -*3 - - 8 -;
#X msg 871 43 list 7 -*3 7 -*2 9 -;
#X msg 1504 46 list -*3 8 -*4;
#X msg 1758 57 list -*3 8 -*4;
#X msg 2107 57 list -*3 8 -*4 -;
#X msg 2282 4 list -*3 8 -*4 - -;
#X msg 2399 96 list @pyramid 1 - 2 - 99 3;
#X msg 124 414 list - 7 -*3 - - 7 -*2 - 9 -;
#X msg 1473 102 list - *3 - - 8 -*4 - -;
#X msg 1813 92 list -*5 -*3 - 8 -*4;
#X msg 2169 90 list -*3 8 -*4 -*11;
#X msg 2311 46 list - - -*3 -*4 8 -*4 - -;
#X msg 1158 138 list 7 -*3 7 -*2 9 -;
#X msg 1169 179 list - 7 -*3 - - 7 -*2 - 9 -;
#X msg 1229 213 list - 7 -*7 7 8 -*2 - 9 -*2;
#X msg 1493 158 list -*3 7 -*7 7 8 -*2 - 9 -*11;
#X msg 1843 124 list - 3*2 -*9 -*5 -*3 - 8 -*4;
#X msg 2190 140 list -*11 11 11 3*2 -*9 -*5 -*3 - 8 -*24;
#X msg 1262 247 list - 20 -*5 - 17;
#X msg 1508 208 list - 20 -*5 - 17 -*4 9;
#X msg 1867 152 list - 20 -*5 - 17 -*4 9;
#X msg 2250 229 list - 7 - - 17 -*4 9;
#X msg 1891 178 list - 17 - - 17 -*4 9;
#X msg 1109 101 list - 7 - - 17 -*4 9;
#X obj 74 499 s p2;
#X msg 1400 427 list -*3 8 -*4;
#X msg 1724 448 list -*3 8 -*4;
#X msg 2120 448 list -*3 8 -*4 -;
#X msg 2213 184 list -*3 8 -*4 - -;
#X msg 1428 472 list - *3 - - 8 -*4 - -;
#X msg 1779 483 list -*5 -*3 - 8 -*4;
#X msg 2182 481 list -*3 8 -*4 -*11;
#X msg 1448 528 list -*3 7 -*7 7 8 -*2 - 9 -*11;
#X msg 1809 515 list - 3*2 -*9 -*5 -*3 - 8 -*4;
#X msg 2203 531 list -*11 11 11 3*2 -*9 -*5 -*3 - 8 -*24;
#X msg 1463 578 list - 20 -*5 - 17 -*4 9;
#X msg 1833 543 list - 20 -*5 - 17 -*4 9;
#X msg 2233 575 list - 7 - - 17 -*4 9;
#X msg 1857 569 list - 17 - - 17 -*4 9;
#X msg 345 368 list - 7 -*3 - - 7 -*2 - 9 -;
#X msg 433 322 list - 7 -*7 7 8 -*2 - 9 -*2;
#X msg 354 431 list - 20 -*5 - 17;
#X msg 1143 41 list -*3 8 -*4;
#X msg 1276 588 list -;
#X msg 1040 232 list -;
#X msg 1678 659 list -;
#X msg 2056 647 list -;
#X msg 2066 231 list -;
#X msg 1757 248 list -;
#X msg 1534 265 list -;
#X msg 1217 295 list -;
#X msg 1891 21 list - - - 5;
#X msg 1282 70 list 11 -*11 11 -*7;
#X obj 1062 414 s drum_1;
#X obj 1421 323 s drum_2;
#X obj 1781 307 s drum_3;
#X obj 2149 301 s drum_4;
#X obj 1412 674 s drum_5;
#X obj 1784 657 s drum_6;
#X obj 2145 671 s drum_7;
#X msg 1470 -2 list -*3 8 -*4;
#X msg 1697 2 list -*3 8 -*4;
#X msg 2060 10 list -*3 8 -*4;
#X msg 1351 375 list -*3 8 -*4;
#X msg 1684 386 list -*3 8 -*4;
#X msg 2092 393 list -*3 8 -*4;
#X msg 2253 678 list 9 *7;
#X msg 1866 610 list 12 -*3;
#X msg 1536 294 list - - - - 7 - - -;
#X msg 1021 460 list 1 - - - 7 - - 7 - 7 - - - - - -;
#X msg 1021 490 list 1 - - - - - - - - - 7 - - - - -;
#X msg 1831 275 list - - - - 9 - - -;
#X msg 2270 302 list - - - 0 0 - --;
#X msg 2255 649 list - - - 0 0 - --;
#X msg 2254 708 list 9 - - - 0*3 -;
#X msg 1877 644 list 6;
#X msg 1480 640 list 18 *3;
#X msg 2265 271 list - - 11 -;
#X msg 2268 330 list 0 - - - - - - -;
#X msg 1878 671 list 6 - - -;
#X msg 2259 737 list 11 *7;
#X msg 1018 520 list 1 - - - - - - - - - - 7 - - - -;
#X msg 2260 766 list 1;
#X msg 1019 547 list 1 - - - - - 7 - - - - 7 - - 7 -;
#X msg 884 361 list 1 - - -;
#X msg 1215 723 list - - 1 -;
#X obj 1446 1056 s drum_1;
#X obj 1513 1056 s drum_2;
#X obj 1581 1056 s drum_3;
#X obj 1647 1056 s drum_4;
#X obj 1711 1056 s drum_5;
#X obj 1775 1055 s drum_6;
#X obj 1839 1055 s drum_7;
#X msg 1324 976 list -;
#X obj 1400 1055 s p2;
#X msg 1348 846 list 1 -*15;
#X msg 1506 839 list - - - - - - - - 9 - - - - - - -;
#X msg 1865 1000 list 11 *7;
#X msg 1775 949 list 12 -*3;
#X msg 1722 911 list 12 -*15;
#X msg 1665 880 list 12 -*15;
#X msg 1398 881 list 1 -*7;
#X msg 1420 911 list 1 -*3;
#X connect 0 0 28 0;
#X connect 1 0 28 0;
#X connect 2 0 28 0;
#X connect 3 0 28 0;
#X connect 4 0 28 0;
#X connect 5 0 57 0;
#X connect 6 0 58 0;
#X connect 7 0 59 0;
#X connect 8 0 60 0;
#X connect 10 0 60 0;
#X connect 11 0 28 0;
#X connect 12 0 58 0;
#X connect 13 0 59 0;
#X connect 14 0 60 0;
#X connect 16 0 57 0;
#X connect 17 0 57 0;
#X connect 18 0 57 0;
#X connect 19 0 58 0;
#X connect 20 0 59 0;
#X connect 21 0 60 0;
#X connect 22 0 57 0;
#X connect 23 0 58 0;
#X connect 24 0 59 0;
#X connect 25 0 60 0;
#X connect 26 0 59 0;
#X connect 27 0 57 0;
#X connect 29 0 61 0;
#X connect 30 0 62 0;
#X connect 31 0 63 0;
#X connect 32 0 60 0;
#X connect 33 0 61 0;
#X connect 34 0 62 0;
#X connect 35 0 63 0;
#X connect 36 0 61 0;
#X connect 37 0 62 0;
#X connect 38 0 63 0;
#X connect 39 0 61 0;
#X connect 40 0 62 0;
#X connect 41 0 63 0;
#X connect 42 0 62 0;
#X connect 43 0 28 0;
#X connect 44 0 28 0;
#X connect 45 0 28 0;
#X connect 46 0 57 0;
#X connect 47 0 61 0;
#X connect 48 0 57 0;
#X connect 49 0 62 0;
#X connect 50 0 63 0;
#X connect 51 0 60 0;
#X connect 52 0 59 0;
#X connect 53 0 58 0;
#X connect 54 0 57 0;
#X connect 55 0 59 0;
#X connect 56 0 57 0;
#X connect 64 0 58 0;
#X connect 65 0 59 0;
#X connect 66 0 60 0;
#X connect 67 0 61 0;
#X connect 68 0 62 0;
#X connect 69 0 63 0;
#X connect 70 0 63 0;
#X connect 71 0 62 0;
#X connect 72 0 58 0;
#X connect 73 0 57 0;
#X connect 74 0 57 0;
#X connect 75 0 59 0;
#X connect 76 0 60 0;
#X connect 77 0 63 0;
#X connect 78 0 63 0;
#X connect 79 0 62 0;
#X connect 80 0 61 0;
#X connect 81 0 60 0;
#X connect 82 0 60 0;
#X connect 83 0 62 0;
#X connect 84 0 63 0;
#X connect 85 0 57 0;
#X connect 86 0 63 0;
#X connect 87 0 57 0;
#X connect 88 0 57 0;
#X connect 89 0 61 0;
#X connect 97 0 98 0;
#X connect 99 0 90 0;
#X connect 100 0 91 0;
#X connect 100 0 92 0;
#X connect 101 0 96 0;
#X connect 102 0 95 0;
#X connect 103 0 94 0;
#X connect 104 0 93 0;
#X connect 105 0 90 0;
#X connect 106 0 90 0;
