#N canvas 4 55 704 979 12;
#X declare -path ./audio/instruments;
#X declare -path ./audio/objects;
#X declare -path ./visuals/objects;
#X declare -lib Gem;
#X declare -path ./visuals/vfx;
#X declare -lib Gem;
#X obj 64 874 *~ 0.8;
#X obj 64 903 dac~;
#X obj 38 805 catch~ drums;
#X obj 43 563 tgl 20 0 empty empty empty 0 -10 0 12 #fcfcfc #000000 #000000 0 1;
#X obj 53 631 s clock;
#X obj 290 552 route clear;
#X obj 290 577 bng 20 250 50 0 empty empty empty 0 -10 0 12 #fcfcfc #000000 #000000;
#X msg 290 602 -;
#X obj 290 627 send to_all;
#X obj 53 606 metro 80;
#X obj 68 835 catch~ chords;
#N canvas 758 223 622 529 imports 0;
#X obj 6 6 declare -path ./audio/instruments;
#X obj 6 28 declare -path ./audio/objects;
#X obj 6 51 declare -path ./visuals/objects;
#X obj 6 97 declare -lib Gem;
#X obj 6 74 declare -path ./visuals/vfx;
#X restore 39 294 pd imports;
#N canvas 0 55 1920 993 visuals 0;
#X obj 31 390 gemframebuffer;
#X obj 31 436 t a a b;
#X obj 31 413 translateXYZ 0 0 -4;
#X obj 136 367 loadbang;
#X obj 31 460 t a b;
#X msg 75 462 snap;
#X obj 31 512 t a b;
#X msg 211 526 1;
#X obj 590 341 t a b;
#X msg 767 342 1;
#X obj 573 1234 pix_texture;
#X obj 573 1345 rectangle 7.12 4.07;
#X floatatom 639 1323 5 0 0 0 - - - 0;
#X floatatom 703 1322 5 0 0 0 - - - 0;
#X msg 136 391 dimen 1024 768;
#X obj 31 488 pix_snap 0 0 1024 768;
#X obj 31 367 gemhead 11;
#X obj 590 316 gemhead 22;
#X obj 31 548 pix_buffer_write framebuffer;
#X obj 31 573 pix_buffer framebuffer 2;
#X obj 590 363 pix_buffer_read framebuffer;
#X obj 639 1300 / 100;
#X obj 703 1299 / 100;
#X floatatom 639 1279 5 0 0 0 - - - 0;
#X floatatom 702 1278 5 0 0 0 - - - 0;
#X obj 151 759 tgl 19 0 empty empty empty 0 -10 0 12 #fcfcfc #000000 #000000 0 1;
#X obj 56 760 separator;
#X obj 57 784 video, f 15;
#X msg 167 704 4;
#X obj 87 670 bng 20 250 50 0 empty empty empty 0 -10 0 12 #fcfcfc #000000 #000000;
#X obj 645 463 tgl 20 0 empty empty empty 0 -10 0 12 #fcfcfc #000000 #000000 0 1;
#X floatatom 699 464 5 0 0 0 - - - 0;
#N canvas 339 345 450 300 puzzle_effect 0;
#X obj 42 173 outlet;
#X obj 43 117 inlet;
#N canvas 565 255 787 662 togglefx 0;
#X obj 89 290 outlet;
#X obj 36 37 inlet;
#X obj 121 172 spigot 1;
#X obj 32 245 spigot 0;
#X msg 127 94 0 1;
#X msg 165 94 1 0;
#X obj 122 125 unpack 0 0;
#X obj 124 37 inlet;
#X obj 189 297 outlet;
#X obj 237 27 inlet;
#X obj 299 58 loadbang;
#X obj 124 68 route 0 1;
#X connect 1 0 3 0;
#X connect 1 0 2 0;
#X connect 2 0 8 0;
#X connect 3 0 0 0;
#X connect 4 0 6 0;
#X connect 5 0 6 0;
#X connect 6 0 3 1;
#X connect 6 1 2 1;
#X connect 7 0 11 0;
#X connect 9 0 0 0;
#X connect 10 0 4 0;
#X connect 11 0 4 0;
#X connect 11 1 5 0;
#X restore 43 143 pd togglefx;
#X obj 144 143 pix_puzzle;
#X msg 144 117 size \$1 \$1;
#X floatatom 151 76 5 0 0 0 - - - 0;
#X obj 95 57 inlet;
#X obj 157 43 inlet;
#X connect 1 0 2 0;
#X connect 2 0 0 0;
#X connect 2 1 3 0;
#X connect 3 0 2 2;
#X connect 4 0 3 0;
#X connect 5 0 4 0;
#X connect 6 0 2 1;
#X connect 7 0 5 0;
#X restore 590 487 pd puzzle_effect;
#N canvas 998 55 897 776 spikey_thing 0;
#X obj 478 937 GEMglPushMatrix;
#X obj 498 916 GEMglPopMatrix;
#X floatatom 755 956 5 0 0 0 - - - 0;
#X obj 417 511 rotateXYZ 0 0 90;
#X obj 417 594 route F;
#X text 673 617 <- rule 1;
#X obj 417 641 route F;
#X msg 417 665 F \, [ \, - \, F \, F \, ] \, F \, [ \, + \, F \, ] \, F;
#X obj 417 689 route F;
#X text 674 663 <- rule 2;
#X text 673 711 <- rule 3;
#X msg 417 564 F;
#X obj 417 539 t b a;
#X obj 386 1189 translateXYZ 0.05 0 0;
#X obj 417 482 translateXYZ 0 -3 0;
#X obj 422 1081 rotateXYZ 0 0 50;
#X obj 446 990 rotateXYZ 0 0 -40;
#X obj 755 975 / 100;
#X msg 755 933 10;
#X obj 755 910 loadbang;
#X text 527 764 <- create the primitive according to the Lsystem;
#X text 672 730 These rules create an Lsystem;
#X text 554 835 <- Store the current state sent by [gemhead] and distribute it to the corresponding primitives;
#X msg 417 618 F \, [ \, - \, F \, ] \, F \, [ \, + \, F \, ] \, F;
#X obj 417 805 gemlist;
#X obj 449 564 s \$0-gemlist;
#X obj 437 826 gemlist;
#X obj 456 849 gemlist;
#X obj 478 871 gemlist;
#X obj 498 892 gemlist;
#X obj 544 784 r \$0-gemlist;
#X msg 417 713 F \, [ \, - \, F \, F \, ] \, F \, [ \, + \, F \, ] \, F;
#X obj 417 763 route F - + [ ];
#X msg 766 1177 print;
#X obj 811 1439 glsl_program;
#X obj 952 1218 change;
#X msg 835 1410 print;
#X floatatom 952 1241 2 0 0 0 ID - - 0;
#X obj 901 1389 print linking;
#X obj 811 1199 glsl_vertex;
#X obj 811 1628 pix_texture;
#X obj 811 1121 alpha;
#X obj 838 1574 tgl 15 0 empty empty empty 17 7 0 10 #fcfcfc #000000 #000000 0 1;
#X floatatom 1029 1379 5 0 0 0 - - - 0;
#X msg 838 1552 0;
#X msg 1029 1400 K \$1;
#N canvas 0 50 450 300 load_shader 0;
#X obj 89 99 t b b;
#X msg 119 126 0;
#X obj 89 154 outlet;
#X obj 89 71 gemhead 1;
#X connect 0 0 2 0;
#X connect 0 1 1 0;
#X connect 1 0 3 0;
#X connect 3 0 0 0;
#X restore 903 1091 pd load_shader;
#N canvas 50 82 450 300 init_shader 0;
#X obj 89 154 outlet;
#X obj 89 45 inlet;
#X obj 89 73 change;
#X obj 89 100 t b;
#X connect 1 0 2 0;
#X connect 2 0 3 0;
#X connect 3 0 0 0;
#X restore 890 1463 pd init_shader;
#X obj 838 1531 loadbang;
#X obj 811 1648 rotateXYZ -90 0 0;
#X msg 1028 1334 0.1;
#X msg 838 1594 rectangle \$1;
#X obj 811 1257 glsl_fragment;
#X obj 899 1279 change;
#X floatatom 899 1302 2 0 0 0 ID - - 0;
#X obj 899 1321 pack 0 0;
#X msg 899 1368 link \$1 \$2;
#X msg 935 1177 open \$1.frag;
#X obj 903 1140 t s s;
#X msg 825 1177 open \$1.vert;
#X msg 903 1120 symbol shader/P_distord;
#X floatatom 1076 1310 5 0 0 0 - - - 0;
#X obj 1076 1332 / 100;
#X obj 811 1671 sphere 0.3;
#X msg 1158 1477 draw line;
#X msg 1165 1500 draw fill;
#X msg 1171 1521 draw point;
#X obj 668 536 / 100;
#X floatatom 811 529 5 0 0 0 - - - 0;
#X obj 811 551 / 100;
#X obj 752 536 / 100;
#X floatatom 668 503 5 0 0 0 - - - 0;
#X floatatom 747 503 5 0 0 0 - - - 0;
#X obj 359 149 separator;
#X floatatom 437 192 5 0 0 0 - - - 0;
#X obj 429 226 / 100;
#X floatatom 492 195 5 0 0 0 - - - 0;
#X obj 484 229 / 100;
#X floatatom 568 189 5 0 0 0 - - - 0;
#X obj 560 223 / 100;
#X floatatom 435 313 5 0 0 0 - - - 0;
#X floatatom 490 316 5 0 0 0 - - - 0;
#X floatatom 566 310 5 0 0 0 - - - 0;
#X obj 356 105 rotateXYZ 0 0 90;
#X obj 812 1506 pix_image ./textures/1.png;
#X msg 1504 1487 open textures/2.png;
#X msg 1511 1459 open textures/3.png;
#X msg 1503 1517 open textures/1.png;
#X obj 310 1579 translateXYZ 0.05 0 0;
#X obj 260 24 inlet;
#X obj 535 79 metro 11;
#N canvas 117 666 450 300 movement 0;
#X obj 39 113 i;
#X obj 81 112 + 1;
#X obj 36 230 outlet;
#X obj 28 29 inlet;
#X connect 0 0 1 0;
#X connect 0 0 2 0;
#X connect 1 0 0 1;
#X connect 3 0 0 0;
#X restore 531 118 pd movement;
#X obj 428 25 inlet;
#X obj 581 16 inlet;
#X obj 960 295 inlet;
#X obj 1131 558 inlet;
#X obj 1265 1203 i;
#X obj 1307 1202 + 1;
#X obj 1253 1076 bng 20 250 50 0 empty empty empty 0 -10 0 12 #fcfcfc #000000 #000000;
#X floatatom 1264 1229 5 0 0 0 - - - 0;
#X obj 1264 1253 % 3;
#X floatatom 1264 1284 5 0 0 0 - - - 0;
#X obj 1264 1308 sel 0 1 2, f 24;
#X obj 1245 1354 bng 20 250 50 0 empty empty empty 0 -10 0 12 #fcfcfc #000000 #000000;
#X obj 1308 1377 bng 20 250 50 0 empty empty empty 0 -10 0 12 #fcfcfc #000000 #000000;
#X obj 1373 1372 bng 20 250 50 0 empty empty empty 0 -10 0 12 #fcfcfc #000000 #000000;
#X obj 1442 1382 bng 20 250 50 0 empty empty empty 0 -10 0 12 #fcfcfc #000000 #000000;
#X obj 1246 806 inlet;
#X obj 1545 1200 i;
#X obj 1587 1199 + 1;
#X obj 1533 1073 bng 20 250 50 0 empty empty empty 0 -10 0 12 #fcfcfc #000000 #000000;
#X floatatom 1544 1226 5 0 0 0 - - - 0;
#X obj 1544 1250 % 3;
#X floatatom 1544 1281 5 0 0 0 - - - 0;
#X obj 1544 1305 sel 0 1 2, f 24;
#X obj 1525 1351 bng 20 250 50 0 empty empty empty 0 -10 0 12 #fcfcfc #000000 #000000;
#X obj 1588 1374 bng 20 250 50 0 empty empty empty 0 -10 0 12 #fcfcfc #000000 #000000;
#X obj 1653 1369 bng 20 250 50 0 empty empty empty 0 -10 0 12 #fcfcfc #000000 #000000;
#X obj 1722 1379 bng 20 250 50 0 empty empty empty 0 -10 0 12 #fcfcfc #000000 #000000;
#X obj 1526 803 inlet;
#X obj 323 30 inlet;
#X obj 159 98 spigot;
#X connect 2 0 17 0;
#X connect 3 0 12 0;
#X connect 4 0 23 0;
#X connect 4 1 6 0;
#X connect 6 0 7 0;
#X connect 6 1 8 0;
#X connect 7 0 8 0;
#X connect 8 0 31 0;
#X connect 8 1 32 0;
#X connect 11 0 4 0;
#X connect 12 0 11 0;
#X connect 12 1 25 0;
#X connect 13 0 41 0;
#X connect 14 0 3 0;
#X connect 17 0 13 1;
#X connect 17 0 88 1;
#X connect 18 0 2 0;
#X connect 19 0 18 0;
#X connect 23 0 6 0;
#X connect 24 0 13 0;
#X connect 26 0 15 0;
#X connect 26 0 27 0;
#X connect 27 0 16 0;
#X connect 28 0 0 0;
#X connect 29 0 1 0;
#X connect 30 0 24 1;
#X connect 30 0 26 1;
#X connect 30 0 27 1;
#X connect 30 0 28 1;
#X connect 30 0 29 1;
#X connect 31 0 32 0;
#X connect 32 0 24 0;
#X connect 32 1 26 0;
#X connect 32 2 27 0;
#X connect 32 3 28 0;
#X connect 32 4 29 0;
#X connect 33 0 39 0;
#X connect 34 0 84 0;
#X connect 34 1 47 0;
#X connect 35 0 37 0;
#X connect 36 0 34 0;
#X connect 37 0 55 1;
#X connect 39 0 52 0;
#X connect 39 1 35 0;
#X connect 40 0 49 0;
#X connect 41 0 39 0;
#X connect 42 0 51 0;
#X connect 43 0 45 0;
#X connect 44 0 42 0;
#X connect 45 0 34 0;
#X connect 46 0 60 0;
#X connect 47 0 50 0;
#X connect 48 0 44 0;
#X connect 49 0 63 0;
#X connect 50 0 43 0;
#X connect 51 0 40 0;
#X connect 52 0 34 0;
#X connect 52 1 53 0;
#X connect 53 0 54 0;
#X connect 54 0 55 0;
#X connect 55 0 56 0;
#X connect 56 0 34 0;
#X connect 56 0 38 0;
#X connect 57 0 52 0;
#X connect 58 0 59 0;
#X connect 58 1 57 0;
#X connect 59 0 39 0;
#X connect 60 0 58 0;
#X connect 61 0 62 0;
#X connect 62 0 43 0;
#X connect 63 0 88 0;
#X connect 64 0 63 0;
#X connect 65 0 63 0;
#X connect 66 0 63 0;
#X connect 67 0 13 1;
#X connect 68 0 69 0;
#X connect 69 0 13 3;
#X connect 70 0 13 2;
#X connect 71 0 67 0;
#X connect 72 0 70 0;
#X connect 73 0 14 0;
#X connect 74 0 75 0;
#X connect 75 0 14 1;
#X connect 76 0 77 0;
#X connect 77 0 14 2;
#X connect 78 0 79 0;
#X connect 79 0 14 3;
#X connect 80 0 3 1;
#X connect 81 0 3 2;
#X connect 82 0 3 3;
#X connect 83 0 73 0;
#X connect 84 0 40 0;
#X connect 85 0 84 0;
#X connect 86 0 84 0;
#X connect 87 0 84 0;
#X connect 89 0 121 0;
#X connect 90 0 91 0;
#X connect 91 0 83 1;
#X connect 91 0 83 2;
#X connect 91 0 83 3;
#X connect 91 0 16 1;
#X connect 91 0 16 2;
#X connect 91 0 16 3;
#X connect 91 0 15 1;
#X connect 91 0 15 2;
#X connect 91 0 15 3;
#X connect 92 0 90 0;
#X connect 93 0 90 1;
#X connect 94 0 2 0;
#X connect 95 0 61 0;
#X connect 96 0 97 0;
#X connect 96 0 99 0;
#X connect 97 0 96 1;
#X connect 98 0 96 0;
#X connect 99 0 100 0;
#X connect 100 0 101 0;
#X connect 101 0 102 0;
#X connect 102 0 103 0;
#X connect 102 1 104 0;
#X connect 102 2 105 0;
#X connect 102 3 106 0;
#X connect 103 0 64 0;
#X connect 104 0 65 0;
#X connect 105 0 66 0;
#X connect 107 0 98 0;
#X connect 108 0 109 0;
#X connect 108 0 111 0;
#X connect 109 0 108 1;
#X connect 110 0 108 0;
#X connect 111 0 112 0;
#X connect 112 0 113 0;
#X connect 113 0 114 0;
#X connect 114 0 115 0;
#X connect 114 1 116 0;
#X connect 114 2 117 0;
#X connect 114 3 118 0;
#X connect 115 0 86 0;
#X connect 116 0 85 0;
#X connect 117 0 87 0;
#X connect 119 0 110 0;
#X connect 120 0 121 1;
#X connect 121 0 83 0;
#X restore 228 732 pd spikey_thing;
#X f 39;
#X obj 276 696 tgl 20 0 empty empty empty 0 -10 0 12 #fcfcfc #000000 #000000 0 1;
#X floatatom 328 694 5 0 0 0 - - - 0;
#X floatatom 386 691 5 0 0 0 - - - 0;
#X floatatom 431 689 5 0 0 0 - - - 0;
#X obj 246 664 tgl 20 0 empty empty empty 0 -10 0 12 #fcfcfc #000000 #000000 0 1;
#N canvas 476 227 997 728 particle_system 0;
#X obj 103 160 part_head;
#X text 327 187 the velocity domain;
#X text 326 202 a sphere at 0 \, 0.2 \, 0;
#X text 327 221 radius = 0.3;
#X msg 302 247 0 0.2 0 0.3;
#X msg 413 247 0.2 0 0 0.3;
#X obj 107 410 part_render;
#X obj 107 208 part_size 1;
#X msg 197 185 2;
#X obj 107 284 part_color;
#X msg 130 230 1 0 0;
#X obj 107 341 part_source 5;
#X msg 142 258 0 1 0;
#X msg 167 184 1;
#X obj 107 311 part_velocity sphere 0 0.02 0 0.03;
#X obj 107 372 part_killold 100;
#X obj 105 564 pix_texture;
#X obj 104 475 pix_image ./1.jpg;
#X floatatom 198 603 5 0 0 0 - - - 0;
#X obj 198 625 / 100;
#X obj 106 646 cube 0.1, f 12;
#X msg 190 715 draw line;
#X msg 197 738 draw fill;
#X msg 203 759 draw point;
#X obj 112 124 separator;
#X obj 40 33 inlet;
#X text 433 310 <domain>: one of "point" \, "line" \, "triangle" \, "plane" \, "box" \, "sphere" \, "cylinder" \, "cone" \, "blob" \, "disc" \, "rectangle";
#X text 432 351 <arguments>: up to 9 floats \, defining the specified domain (like "x y z" for "point" \, "x1 y1 z1 x2 y2 z2" for "line" \, "x y z r" for "sphere" \, ...). The meaning of the arguments depends -of course- on the domain.;
#X msg 548 105 symbol sphere;
#X msg 536 229 0 0.1 0 0.1;
#X msg 535 203 0.1 -0.1 0 0.05;
#X text 535 187 arguments;
#X obj 560 704 rotateXYZ 0 0 90;
#X obj 586 553 metro 11;
#X obj 586 466 tgl 20 0 empty empty empty 0 -10 0 12 #fcfcfc #000000 #000000 0 1;
#N canvas 117 666 450 300 movement 0;
#X obj 39 113 i;
#X obj 81 112 + 1;
#X obj 36 230 outlet;
#X obj 28 29 inlet;
#X connect 0 0 1 0;
#X connect 0 0 2 0;
#X connect 1 0 0 1;
#X connect 3 0 0 0;
#X restore 591 597 pd movement;
#N canvas 117 666 450 300 movement 0;
#X obj 39 113 i;
#X obj 81 112 + 1;
#X obj 36 230 outlet;
#X obj 28 29 inlet;
#X connect 0 0 1 0;
#X connect 0 0 2 0;
#X connect 1 0 0 1;
#X connect 3 0 0 0;
#X restore 625 623 pd movement;
#N canvas 117 666 450 300 movement 0;
#X obj 39 113 i;
#X obj 81 112 + 1;
#X obj 36 230 outlet;
#X obj 28 29 inlet;
#X connect 0 0 1 0;
#X connect 0 0 2 0;
#X connect 1 0 0 1;
#X connect 3 0 0 0;
#X restore 660 656 pd movement;
#X floatatom 685 519 5 0 0 0 - - - 0;
#X msg 561 136 symbol cone;
#X obj 889 295 i;
#X obj 931 294 + 1;
#X obj 877 168 bng 20 250 50 0 empty empty empty 0 -10 0 12 #fcfcfc #000000 #000000;
#X floatatom 888 321 5 0 0 0 - - - 0;
#X obj 888 345 % 3;
#X floatatom 888 376 5 0 0 0 - - - 0;
#X obj 888 400 sel 0 1 2, f 24;
#X obj 869 446 bng 20 250 50 0 empty empty empty 0 -10 0 12 #fcfcfc #000000 #000000;
#X obj 932 469 bng 20 250 50 0 empty empty empty 0 -10 0 12 #fcfcfc #000000 #000000;
#X obj 997 464 bng 20 250 50 0 empty empty empty 0 -10 0 12 #fcfcfc #000000 #000000;
#X obj 869 99 inlet;
#X obj 191 35 inlet;
#X obj 150 81 spigot;
#X msg 290 454 open ./textures/3.png;
#X msg 283 482 open ./textures/2.png;
#X msg 282 512 open ./textures/1.png;
#X connect 0 0 7 0;
#X connect 4 0 14 2;
#X connect 5 0 14 2;
#X connect 6 0 17 0;
#X connect 7 0 9 0;
#X connect 8 0 7 1;
#X connect 9 0 14 0;
#X connect 10 0 9 1;
#X connect 11 0 15 0;
#X connect 12 0 9 2;
#X connect 13 0 7 1;
#X connect 14 0 11 0;
#X connect 15 0 6 0;
#X connect 16 0 32 0;
#X connect 17 0 16 0;
#X connect 18 0 19 0;
#X connect 19 0 20 1;
#X connect 21 0 20 0;
#X connect 22 0 20 0;
#X connect 23 0 20 0;
#X connect 24 0 0 0;
#X connect 25 0 52 0;
#X connect 28 0 14 1;
#X connect 29 0 14 2;
#X connect 32 0 20 0;
#X connect 33 0 35 0;
#X connect 33 0 36 0;
#X connect 33 0 37 0;
#X connect 34 0 33 0;
#X connect 35 0 32 1;
#X connect 36 0 32 2;
#X connect 37 0 32 3;
#X connect 38 0 33 1;
#X connect 39 0 14 1;
#X connect 40 0 41 0;
#X connect 40 0 43 0;
#X connect 41 0 40 1;
#X connect 42 0 40 0;
#X connect 43 0 44 0;
#X connect 44 0 45 0;
#X connect 45 0 46 0;
#X connect 46 0 47 0;
#X connect 46 1 48 0;
#X connect 46 2 49 0;
#X connect 47 0 53 0;
#X connect 48 0 54 0;
#X connect 49 0 55 0;
#X connect 50 0 42 0;
#X connect 51 0 52 1;
#X connect 52 0 24 0;
#X connect 53 0 17 0;
#X connect 53 0 54 0;
#X connect 54 0 17 0;
#X connect 55 0 17 0;
#X restore 173 1111 pd particle_system;
#X obj 155 1039 rotateXYZ 0 0 90;
#X obj 713 405 tgl 20 0 empty empty empty 0 -10 0 12 #fcfcfc #000000 #000000 0 1;
#X obj 615 747 tgl 20 0 empty empty empty 0 -10 0 12 #fcfcfc #000000 #000000 0 1;
#X floatatom 695 719 5 0 0 0 - - - 0;
#N canvas 225 340 667 458 movement_effect 0;
#X obj 42 173 outlet;
#X obj 43 117 inlet;
#N canvas 565 255 787 662 togglefx 0;
#X obj 89 290 outlet;
#X obj 36 37 inlet;
#X obj 121 172 spigot 1;
#X obj 32 245 spigot 0;
#X msg 127 94 0 1;
#X msg 165 94 1 0;
#X obj 122 125 unpack 0 0;
#X obj 124 37 inlet;
#X obj 189 297 outlet;
#X obj 237 27 inlet;
#X obj 299 58 loadbang;
#X obj 124 68 route 0 1;
#X connect 1 0 3 0;
#X connect 1 0 2 0;
#X connect 2 0 8 0;
#X connect 3 0 0 0;
#X connect 4 0 6 0;
#X connect 5 0 6 0;
#X connect 6 0 3 1;
#X connect 6 1 2 1;
#X connect 7 0 11 0;
#X connect 9 0 0 0;
#X connect 10 0 4 0;
#X connect 11 0 4 0;
#X connect 11 1 5 0;
#X restore 43 143 pd togglefx;
#X obj 95 57 inlet;
#X floatatom 322 130 3 0 100 2 lo_threshold - - 0;
#X obj 321 146 / 100;
#X obj 278 172 pix_movement2;
#X floatatom 376 151 3 0 100 2 threshold - - 0;
#X obj 375 167 / 100;
#X obj 277 64 pix_2grey;
#X connect 1 0 2 0;
#X connect 2 0 0 0;
#X connect 2 1 9 0;
#X connect 3 0 2 1;
#X connect 4 0 5 0;
#X connect 5 0 6 1;
#X connect 6 0 2 2;
#X connect 7 0 8 0;
#X connect 8 0 6 2;
#X connect 9 0 6 0;
#X restore 590 429 pd movement_effect;
#N canvas 425 264 544 372 lumaofset_effect 0;
#X obj 42 173 outlet;
#X obj 43 117 inlet;
#N canvas 565 255 787 662 togglefx 0;
#X obj 89 290 outlet;
#X obj 36 37 inlet;
#X obj 121 172 spigot 1;
#X obj 32 245 spigot 0;
#X msg 127 94 0 1;
#X msg 165 94 1 0;
#X obj 122 125 unpack 0 0;
#X obj 124 37 inlet;
#X obj 189 297 outlet;
#X obj 237 27 inlet;
#X obj 299 58 loadbang;
#X obj 124 68 route 0 1;
#X connect 1 0 3 0;
#X connect 1 0 2 0;
#X connect 2 0 8 0;
#X connect 3 0 0 0;
#X connect 4 0 6 0;
#X connect 5 0 6 0;
#X connect 6 0 3 1;
#X connect 6 1 2 1;
#X connect 7 0 11 0;
#X connect 9 0 0 0;
#X connect 10 0 4 0;
#X connect 11 0 4 0;
#X connect 11 1 5 0;
#X restore 43 143 pd togglefx;
#X obj 95 57 inlet;
#X obj 157 43 inlet;
#X obj 201 171 pix_lumaoffset;
#X floatatom 246 113 5 0 0 2 offset - - 0;
#X floatatom 294 116 5 0 0 2 gap - - 0;
#X obj 283 133 tgl 15 0 empty empty empty 0 -6 0 8 #fcfcfc #000000 #000000 0 1;
#X msg 283 151 smooth \$1;
#X msg 215 150 fill \$1;
#X obj 215 132 tgl 15 0 empty empty empty 0 -6 0 8 #fcfcfc #000000 #000000 0 1;
#X obj 210 45 inlet;
#X obj 266 44 inlet;
#X connect 1 0 2 0;
#X connect 2 0 0 0;
#X connect 2 1 5 0;
#X connect 3 0 2 1;
#X connect 4 0 11 0;
#X connect 5 0 2 2;
#X connect 6 0 5 1;
#X connect 7 0 5 2;
#X connect 8 0 9 0;
#X connect 9 0 5 0;
#X connect 10 0 5 0;
#X connect 11 0 10 0;
#X connect 12 0 6 0;
#X connect 13 0 7 0;
#X restore 576 786 pd lumaofset_effect;
#X floatatom 746 717 5 0 0 0 - - - 0;
#X obj 646 741 tgl 20 0 empty empty empty 0 -10 0 12 #fcfcfc #000000 #000000 0 1;
#X obj 604 1035 tgl 20 0 empty empty empty 0 -10 0 12 #fcfcfc #000000 #000000 0 1;
#X floatatom 652 984 5 0 0 0 - - - 0;
#N canvas 739 455 450 300 gain_effect 0;
#X obj 42 173 outlet;
#X obj 43 117 inlet;
#N canvas 565 255 787 662 togglefx 0;
#X obj 89 290 outlet;
#X obj 36 37 inlet;
#X obj 121 172 spigot 1;
#X obj 32 245 spigot 0;
#X msg 127 94 0 1;
#X msg 165 94 1 0;
#X obj 122 125 unpack 0 0;
#X obj 124 37 inlet;
#X obj 189 297 outlet;
#X obj 237 27 inlet;
#X obj 299 58 loadbang;
#X obj 124 68 route 0 1;
#X connect 1 0 3 0;
#X connect 1 0 2 0;
#X connect 2 0 8 0;
#X connect 3 0 0 0;
#X connect 4 0 6 0;
#X connect 5 0 6 0;
#X connect 6 0 3 1;
#X connect 6 1 2 1;
#X connect 7 0 11 0;
#X connect 9 0 0 0;
#X connect 10 0 4 0;
#X connect 11 0 4 0;
#X connect 11 1 5 0;
#X restore 43 143 pd togglefx;
#X floatatom 151 76 5 0 0 0 - - - 0;
#X obj 95 57 inlet;
#X obj 157 43 inlet;
#X obj 142 177 pix_gain;
#X msg 267 124 saturate \$1;
#X obj 272 94 tgl 18 0 empty empty empty 0 -9 0 10 #fcfcfc #000000 #000000 0 1;
#X connect 1 0 2 0;
#X connect 2 0 0 0;
#X connect 2 1 6 0;
#X connect 3 0 6 1;
#X connect 4 0 2 1;
#X connect 5 0 3 0;
#X connect 6 0 2 2;
#X connect 7 0 6 0;
#X connect 8 0 7 0;
#X restore 565 1074 pd gain_effect;
#X obj 242 859 tgl 20 0 empty empty empty 0 -10 0 12 #fcfcfc #000000 #000000 0 1;
#X obj 77 247 s mprob;
#X floatatom 79 192 5 0 0 0 - - - 0;
#X obj 474 656 bng 20 250 50 0 empty empty empty 0 -10 0 12 #fcfcfc #000000 #000000;
#X obj 516 659 bng 20 250 50 0 empty empty empty 0 -10 0 12 #fcfcfc #000000 #000000;
#N canvas 1306 577 450 300 rmovement 0;
#N canvas 117 666 450 300 movement 0;
#X obj 39 113 i;
#X obj 81 112 + 1;
#X obj 36 230 outlet;
#X obj 28 29 inlet;
#X connect 0 0 1 0;
#X connect 0 0 2 0;
#X connect 1 0 0 1;
#X connect 3 0 0 0;
#X restore 23 46 pd movement;
#X obj 21 19 r metro11;
#X obj 23 71 outlet;
#X connect 0 0 2 0;
#X connect 1 0 0 0;
#X restore 721 100 pd rmovement;
#N canvas 1280 583 450 373 rbonk 0;
#X obj 16 49 random 1000;
#X obj 16 99 sel 1;
#X obj 15 122 bng 20 250 50 0 empty empty empty 0 -10 0 12 #fcfcfc #000000 #000000;
#X obj 16 74 > 900;
#X obj 15 147 outlet;
#X obj 17 9 r metro11;
#X obj 96 19 r mprob;
#X connect 0 0 3 0;
#X connect 1 0 2 0;
#X connect 2 0 4 0;
#X connect 3 0 1 0;
#X connect 5 0 0 0;
#X connect 6 0 3 1;
#X restore 652 100 pd rbonk;
#X obj 291 937 bng 20 250 50 0 empty empty empty 0 -10 0 12 #fcfcfc #000000 #000000;
#X obj 291 92 inlet;
#X obj 89 710 i;
#X floatatom 82 726 5 0 0 0 - - - 0;
#X obj 129 710 + 1;
#X obj 84 104 line;
#X msg 82 60 1000 5000;
#X floatatom 84 129 5 0 0 0 - - - 0;
#X msg 125 84 0 5000;
#X obj 1406 1276 outlet;
#X obj 291 117 route vj;
#X obj 312 186 route skip;
#X obj 312 211 b;
#X obj 857 708 loadbang;
#X obj 566 226 route puzzle;
#X obj 585 252 channel;
#X obj 452 264 route movement;
#X obj 612 573 route luma;
#X obj 630 605 route fill off gap;
#X obj 729 638 channel;
#X obj 667 635 channel;
#X obj 602 683 b;
#X obj 628 661 b;
#X obj 681 680 change;
#X obj 785 413 change;
#X obj 644 936 channel;
#X obj 602 879 route gain;
#X obj 602 904 b;
#X obj 639 909 route level;
#X obj 274 407 route spikey;
#X obj 274 432 b;
#X obj 452 289 b;
#X obj 288 492 b;
#X obj 856 782 route clear;
#X obj 856 807 b;
#X obj 321 517 channel;
#X obj 325 546 change;
#X obj 288 467 route move x y z material mode, f 37;
#X obj 382 518 channel;
#X obj 386 547 change;
#X obj 443 517 channel;
#X obj 447 546 change;
#X obj 470 493 b;
#X obj 513 500 b;
#X msg 856 832 1;
#X obj 192 288 route video;
#X obj 205 316 channel;
#X obj 209 345 change;
#X obj 290 903 b;
#X obj 214 829 b;
#X obj 282 850 route mat x y z;
#X obj 760 679 change;
#X obj 648 954 change;
#X obj 325 891 channel;
#X obj 333 922 change;
#X obj 393 889 channel;
#X obj 401 920 change;
#X obj 452 894 channel;
#X obj 460 925 change;
#X obj 213 802 route part;
#X obj 532 168 channel;
#X obj 531 129 route jump;
#X obj 62 818 loadbang;
#X msg 62 843 1;
#X obj 662 1043 / 10;
#X obj 652 1008 - 1000;
#X connect 0 0 2 0;
#X connect 1 0 4 0;
#X connect 1 1 26 0;
#X connect 1 1 33 0;
#X connect 1 1 67 0;
#X connect 1 1 40 0;
#X connect 2 0 1 0;
#X connect 3 0 14 0;
#X connect 3 0 34 0;
#X connect 4 0 15 0;
#X connect 4 1 5 0;
#X connect 5 0 15 0;
#X connect 6 0 18 0;
#X connect 6 1 7 0;
#X connect 7 0 18 1;
#X connect 8 0 20 0;
#X connect 8 1 9 0;
#X connect 9 0 20 1;
#X connect 10 0 11 0;
#X connect 12 0 11 1;
#X connect 13 0 11 2;
#X connect 14 0 0 0;
#X connect 15 0 6 0;
#X connect 16 0 0 0;
#X connect 17 0 8 0;
#X connect 20 0 44 0;
#X connect 21 0 12 0;
#X connect 22 0 13 0;
#X connect 23 0 21 0;
#X connect 24 0 22 0;
#X connect 25 0 27 2;
#X connect 26 0 27 0;
#X connect 27 0 29 0;
#X connect 28 0 27 1;
#X connect 29 0 60 0;
#X connect 30 0 32 1;
#X connect 31 0 32 2;
#X connect 32 0 45 0;
#X connect 34 0 33 2;
#X connect 35 0 33 3;
#X connect 36 0 33 4;
#X connect 37 0 33 5;
#X connect 38 0 33 1;
#X connect 40 0 39 0;
#X connect 41 0 44 1;
#X connect 42 0 45 1;
#X connect 43 0 45 3;
#X connect 44 0 32 0;
#X connect 45 0 50 0;
#X connect 46 0 45 4;
#X connect 47 0 45 2;
#X connect 48 0 50 1;
#X connect 49 0 123 0;
#X connect 50 0 10 0;
#X connect 51 0 39 1;
#X connect 53 0 52 0;
#X connect 54 0 33 6;
#X connect 55 0 33 7;
#X connect 58 0 39 2;
#X connect 59 0 68 0;
#X connect 60 0 61 0;
#X connect 60 0 62 0;
#X connect 61 0 27 1;
#X connect 62 0 60 1;
#X connect 63 0 65 0;
#X connect 64 0 63 0;
#X connect 65 0 31 0;
#X connect 66 0 63 0;
#X connect 68 0 69 0;
#X connect 68 0 72 0;
#X connect 68 0 74 0;
#X connect 68 0 75 0;
#X connect 68 0 84 0;
#X connect 68 0 87 0;
#X connect 68 0 91 0;
#X connect 68 0 103 0;
#X connect 68 0 117 0;
#X connect 68 0 119 0;
#X connect 69 0 70 0;
#X connect 70 0 29 0;
#X connect 71 0 41 0;
#X connect 71 0 30 0;
#X connect 71 0 42 0;
#X connect 71 0 48 0;
#X connect 72 0 30 0;
#X connect 72 0 73 0;
#X connect 73 0 82 0;
#X connect 74 0 89 0;
#X connect 75 0 76 0;
#X connect 75 0 79 0;
#X connect 76 0 80 0;
#X connect 76 1 78 0;
#X connect 76 2 77 0;
#X connect 77 0 109 0;
#X connect 78 0 81 0;
#X connect 79 0 42 0;
#X connect 80 0 47 0;
#X connect 81 0 43 0;
#X connect 82 0 31 0;
#X connect 83 0 110 0;
#X connect 84 0 85 0;
#X connect 84 0 86 0;
#X connect 85 0 48 0;
#X connect 86 0 83 0;
#X connect 87 0 88 0;
#X connect 87 0 95 0;
#X connect 88 0 38 0;
#X connect 89 0 41 0;
#X connect 90 0 34 0;
#X connect 91 0 92 0;
#X connect 92 0 102 0;
#X connect 93 0 94 0;
#X connect 94 0 35 0;
#X connect 95 0 90 0;
#X connect 95 1 93 0;
#X connect 95 2 96 0;
#X connect 95 3 98 0;
#X connect 95 4 100 0;
#X connect 95 5 101 0;
#X connect 96 0 97 0;
#X connect 97 0 36 0;
#X connect 98 0 99 0;
#X connect 99 0 37 0;
#X connect 100 0 54 0;
#X connect 101 0 55 0;
#X connect 102 0 41 0;
#X connect 102 0 30 0;
#X connect 102 0 42 0;
#X connect 102 0 48 0;
#X connect 103 0 104 0;
#X connect 104 0 105 0;
#X connect 105 0 61 0;
#X connect 106 0 58 0;
#X connect 107 0 51 0;
#X connect 108 0 106 0;
#X connect 108 1 111 0;
#X connect 108 2 113 0;
#X connect 108 3 115 0;
#X connect 109 0 46 0;
#X connect 110 0 49 0;
#X connect 111 0 112 0;
#X connect 112 0 40 1;
#X connect 113 0 114 0;
#X connect 114 0 40 2;
#X connect 115 0 116 0;
#X connect 116 0 40 3;
#X connect 117 0 107 0;
#X connect 117 0 108 0;
#X connect 118 0 27 3;
#X connect 119 0 118 0;
#X connect 120 0 121 0;
#X connect 121 0 25 0;
#X connect 122 0 50 2;
#X connect 123 0 122 0;
#X restore 27 756 pd visuals;
#N canvas 152 268 454 304 gemwin 0;
#X obj 132 136 gemwin;
#X obj 67 89 outlet;
#X obj 67 10 inlet;
#X obj 67 41 route create;
#X msg 67 70 set destroy;
#X msg 182 68 set create;
#X msg 132 112 create \, 1;
#X msg 238 112 destroy;
#N canvas 91 178 247 179 Gem.init 0;
#X obj 59 26 loadbang;
#X msg 118 81 reset;
#X obj 118 113 outlet;
#X obj 59 45 t b b;
#X connect 0 0 3 0;
#X connect 1 0 2 0;
#X connect 3 1 1 0;
#X restore 289 80 pd Gem.init;
#X msg 114 205 reset \, dimen 1200 1100 \, create \, 1;
#X obj 180 13 inlet;
#X connect 2 0 3 0;
#X connect 3 0 4 0;
#X connect 3 0 6 0;
#X connect 3 1 5 0;
#X connect 3 1 7 0;
#X connect 4 0 1 0;
#X connect 5 0 1 0;
#X connect 6 0 0 0;
#X connect 7 0 0 0;
#X connect 8 0 0 0;
#X connect 9 0 0 0;
#X connect 10 0 9 0;
#X restore 36 470 pd gemwin;
#X msg 42 341 create;
#X obj 46 315 declare -lib Gem;
#X msg 97 442 reset \, dimen 1200 1100 \, create \, 1;
#X msg 52 376 destroy;
#X obj 103 522 r message;
#X msg 440 534 ai 6 -*3 9 4 8 9 20 33 4;
#X msg 116 473 reset \, dimen 320 200 \, create \, 1;
#X floatatom 105 577 5 0 0 0 - - - 0;
#X msg 491 392 metro \$1;
#X floatatom 491 364 5 0 0 0 - - - 0;
#N canvas -186 168 1920 993 drums 0;
#X obj 32 22 inlet;
#N canvas 263 485 531 411 kicks 0;
#X obj 190 98 pdcontrol;
#X msg 190 70 dir;
#X obj 190 43 bng 15 250 50 0 empty empty empty 17 7 0 10 #fcfcfc #000000 #000000;
#X obj 229 45 loadbang;
#X obj 81 153 playdir2~;
#X msg 189 125 \$1/sounds/kicks;
#X obj 41 23 inlet;
#X obj 84 235 throw~ drums;
#X obj 81 178 *~ 1.8;
#X connect 0 0 5 0;
#X connect 1 0 0 0;
#X connect 2 0 1 0;
#X connect 3 0 2 0;
#X connect 4 0 8 0;
#X connect 5 0 4 1;
#X connect 6 0 4 0;
#X connect 8 0 7 0;
#X restore 31 247 pd kicks;
#N canvas 243 365 583 417 snares 0;
#X obj 190 98 pdcontrol;
#X msg 190 70 dir;
#X obj 190 43 bng 15 250 50 0 empty empty empty 17 7 0 10 #fcfcfc #000000 #000000;
#X obj 229 45 loadbang;
#X obj 84 210 playdir2~;
#X obj 41 23 inlet;
#X msg 189 125 \$1/sounds/snares;
#X obj 84 235 throw~ drums;
#X connect 0 0 6 0;
#X connect 1 0 0 0;
#X connect 2 0 1 0;
#X connect 3 0 2 0;
#X connect 4 0 7 0;
#X connect 5 0 4 0;
#X connect 6 0 4 1;
#X restore 120 247 pd snares;
#N canvas 251 413 450 300 claps 0;
#X obj 190 98 pdcontrol;
#X msg 190 70 dir;
#X obj 190 43 bng 15 250 50 0 empty empty empty 17 7 0 10 #fcfcfc #000000 #000000;
#X obj 229 45 loadbang;
#X obj 84 210 playdir2~;
#X obj 41 23 inlet;
#X msg 189 125 \$1/sounds/claps;
#X obj 84 235 throw~ drums;
#X connect 0 0 6 0;
#X connect 1 0 0 0;
#X connect 2 0 1 0;
#X connect 3 0 2 0;
#X connect 4 0 7 0;
#X connect 5 0 4 0;
#X connect 6 0 4 1;
#X restore 294 249 pd claps;
#N canvas 251 413 450 300 hihats 0;
#X obj 190 98 pdcontrol;
#X msg 190 70 dir;
#X obj 190 43 bng 15 250 50 0 empty empty empty 17 7 0 10 #fcfcfc #000000 #000000;
#X obj 229 45 loadbang;
#X obj 84 210 playdir2~;
#X obj 41 23 inlet;
#X msg 189 125 \$1/sounds/hihats;
#X obj 84 235 throw~ drums;
#X connect 0 0 6 0;
#X connect 1 0 0 0;
#X connect 2 0 1 0;
#X connect 3 0 2 0;
#X connect 4 0 7 0;
#X connect 5 0 4 0;
#X connect 6 0 4 1;
#X restore 381 247 pd hihats;
#N canvas 259 461 450 300 openhihats 0;
#X obj 190 98 pdcontrol;
#X msg 190 70 dir;
#X obj 190 43 bng 15 250 50 0 empty empty empty 17 7 0 10 #fcfcfc #000000 #000000;
#X obj 229 45 loadbang;
#X obj 84 210 playdir2~;
#X obj 41 23 inlet;
#X msg 189 125 \$1/sounds/openhihats;
#X obj 84 235 throw~ drums;
#X connect 0 0 6 0;
#X connect 1 0 0 0;
#X connect 2 0 1 0;
#X connect 3 0 2 0;
#X connect 4 0 7 0;
#X connect 5 0 4 0;
#X connect 6 0 4 1;
#X restore 632 251 pd openhihats;
#N canvas 267 509 450 300 cymbals 0;
#X obj 190 98 pdcontrol;
#X msg 190 70 dir;
#X obj 190 43 bng 15 250 50 0 empty empty empty 17 7 0 10 #fcfcfc #000000 #000000;
#X obj 229 45 loadbang;
#X obj 84 210 playdir2~;
#X obj 41 23 inlet;
#X msg 189 125 \$1/sounds/cymbals;
#X obj 84 235 throw~ drums;
#X connect 0 0 6 0;
#X connect 1 0 0 0;
#X connect 2 0 1 0;
#X connect 3 0 2 0;
#X connect 4 0 7 0;
#X connect 5 0 4 0;
#X connect 6 0 4 1;
#X restore 738 252 pd cymbals;
#N canvas 279 581 450 300 cymbals2 0;
#X obj 190 98 pdcontrol;
#X msg 190 70 dir;
#X obj 190 43 bng 15 250 50 0 empty empty empty 17 7 0 10 #fcfcfc #000000 #000000;
#X obj 229 45 loadbang;
#X obj 84 210 playdir2~;
#X obj 41 23 inlet;
#X msg 189 125 \$1/sounds/cymbals2;
#X obj 84 235 throw~ drums;
#X connect 0 0 6 0;
#X connect 1 0 0 0;
#X connect 2 0 1 0;
#X connect 3 0 2 0;
#X connect 4 0 7 0;
#X connect 5 0 4 0;
#X connect 6 0 4 1;
#X restore 826 252 pd cymbals2;
#N canvas 279 581 450 300 fx 0;
#X obj 190 98 pdcontrol;
#X msg 190 70 dir;
#X obj 190 43 bng 15 250 50 0 empty empty empty 17 7 0 10 #fcfcfc #000000 #000000;
#X obj 229 45 loadbang;
#X obj 84 210 playdir2~;
#X obj 41 23 inlet;
#X obj 84 235 throw~ drums;
#X msg 189 125 \$1/sounds/fx;
#X connect 0 0 7 0;
#X connect 1 0 0 0;
#X connect 2 0 1 0;
#X connect 3 0 2 0;
#X connect 4 0 6 0;
#X connect 5 0 4 0;
#X connect 7 0 4 1;
#X restore 917 252 pd fx;
#N canvas 283 605 450 300 hihats2 0;
#X obj 190 98 pdcontrol;
#X msg 190 70 dir;
#X obj 190 43 bng 15 250 50 0 empty empty empty 17 7 0 10 #fcfcfc #000000 #000000;
#X obj 229 45 loadbang;
#X obj 84 210 playdir2~;
#X obj 41 23 inlet;
#X obj 84 235 throw~ drums;
#X msg 189 125 \$1/sounds/hihats2;
#X connect 0 0 7 0;
#X connect 1 0 0 0;
#X connect 2 0 1 0;
#X connect 3 0 2 0;
#X connect 4 0 6 0;
#X connect 5 0 4 0;
#X connect 7 0 4 1;
#X restore 461 252 pd hihats2;
#N canvas 287 629 450 300 hihats3 0;
#X obj 190 98 pdcontrol;
#X msg 190 70 dir;
#X obj 190 43 bng 15 250 50 0 empty empty empty 17 7 0 10 #fcfcfc #000000 #000000;
#X obj 229 45 loadbang;
#X obj 84 210 playdir2~;
#X obj 41 23 inlet;
#X obj 84 235 throw~ drums;
#X msg 189 125 \$1/sounds/hihats3;
#X connect 0 0 7 0;
#X connect 1 0 0 0;
#X connect 2 0 1 0;
#X connect 3 0 2 0;
#X connect 4 0 6 0;
#X connect 5 0 4 0;
#X connect 7 0 4 1;
#X restore 550 254 pd hihats3;
#N canvas 287 629 450 300 misc 0;
#X obj 190 98 pdcontrol;
#X msg 190 70 dir;
#X obj 190 43 bng 15 250 50 0 empty empty empty 17 7 0 10 #fcfcfc #000000 #000000;
#X obj 229 45 loadbang;
#X obj 84 210 playdir2~;
#X obj 41 23 inlet;
#X obj 84 235 throw~ drums;
#X msg 189 125 \$1/sounds/misc;
#X connect 0 0 7 0;
#X connect 1 0 0 0;
#X connect 2 0 1 0;
#X connect 3 0 2 0;
#X connect 4 0 6 0;
#X connect 5 0 4 0;
#X connect 7 0 4 1;
#X restore 1171 253 pd misc;
#N canvas 291 653 450 300 modular 0;
#X obj 190 98 pdcontrol;
#X msg 190 70 dir;
#X obj 190 43 bng 15 250 50 0 empty empty empty 17 7 0 10 #fcfcfc #000000 #000000;
#X obj 229 45 loadbang;
#X obj 84 210 playdir2~;
#X obj 41 23 inlet;
#X obj 84 235 throw~ drums;
#X msg 189 125 \$1/sounds/modular;
#X connect 0 0 7 0;
#X connect 1 0 0 0;
#X connect 2 0 1 0;
#X connect 3 0 2 0;
#X connect 4 0 6 0;
#X connect 5 0 4 0;
#X connect 7 0 4 1;
#X restore 1265 263 pd modular;
#N canvas 299 701 450 300 perc 0;
#X obj 190 98 pdcontrol;
#X msg 190 70 dir;
#X obj 190 43 bng 15 250 50 0 empty empty empty 17 7 0 10 #fcfcfc #000000 #000000;
#X obj 229 45 loadbang;
#X obj 84 210 playdir2~;
#X obj 41 23 inlet;
#X obj 84 235 throw~ drums;
#X msg 189 125 \$1/sounds/perc;
#X connect 0 0 7 0;
#X connect 1 0 0 0;
#X connect 2 0 1 0;
#X connect 3 0 2 0;
#X connect 4 0 6 0;
#X connect 5 0 4 0;
#X connect 7 0 4 1;
#X restore 1000 258 pd perc;
#N canvas 303 725 450 300 perc2 0;
#X obj 190 98 pdcontrol;
#X msg 190 70 dir;
#X obj 190 43 bng 15 250 50 0 empty empty empty 17 7 0 10 #fcfcfc #000000 #000000;
#X obj 229 45 loadbang;
#X obj 84 210 playdir2~;
#X obj 41 23 inlet;
#X obj 84 235 throw~ drums;
#X msg 189 125 \$1/sounds/perc2;
#X connect 0 0 7 0;
#X connect 1 0 0 0;
#X connect 2 0 1 0;
#X connect 3 0 2 0;
#X connect 4 0 6 0;
#X connect 5 0 4 0;
#X connect 7 0 4 1;
#X restore 1078 259 pd perc2;
#N canvas 239 341 450 300 snares2 0;
#X obj 190 98 pdcontrol;
#X msg 190 70 dir;
#X obj 190 43 bng 15 250 50 0 empty empty empty 17 7 0 10 #fcfcfc #000000 #000000;
#X obj 229 45 loadbang;
#X obj 84 210 playdir2~;
#X obj 41 23 inlet;
#X obj 84 235 throw~ drums;
#X msg 189 125 \$1/sounds/snares2;
#X connect 0 0 7 0;
#X connect 1 0 0 0;
#X connect 2 0 1 0;
#X connect 3 0 2 0;
#X connect 4 0 6 0;
#X connect 5 0 4 0;
#X connect 7 0 4 1;
#X restore 204 252 pd snares2;
#N canvas 243 365 450 300 wine-glass 0;
#X obj 190 98 pdcontrol;
#X msg 190 70 dir;
#X obj 190 43 bng 15 250 50 0 empty empty empty 17 7 0 10 #fcfcfc #000000 #000000;
#X obj 229 45 loadbang;
#X obj 84 210 playdir2~;
#X obj 41 23 inlet;
#X obj 84 235 throw~ drums;
#X msg 189 125 \$1/sounds/wine-glass;
#X connect 0 0 7 0;
#X connect 1 0 0 0;
#X connect 2 0 1 0;
#X connect 3 0 2 0;
#X connect 4 0 6 0;
#X connect 5 0 4 0;
#X connect 7 0 4 1;
#X restore 1323 336 pd wine-glass;
#X obj 32 219 channel;
#X obj 119 218 channel;
#X obj 208 218 channel;
#X obj 295 218 channel;
#X obj 384 218 channel;
#X obj 466 221 channel;
#X obj 553 220 channel;
#X obj 642 220 channel;
#X obj 729 220 channel;
#X obj 818 220 channel;
#X obj 913 224 channel;
#X obj 1000 223 channel;
#X obj 1089 223 channel;
#X obj 1176 223 channel;
#X obj 1265 223 channel;
#X obj 1321 303 channel;
#X obj 32 193 route kick snare snare2 clap hihat hihat2 hihat3 openhihat cymbal cymbal2 fx perc perc2 misc modular wine-glass ai, f 202;
#X obj 1366 226 channel;
#N canvas 251 413 829 549 ai 0;
#X obj 190 98 pdcontrol;
#X msg 190 70 dir;
#X obj 190 43 bng 15 250 50 0 empty empty empty 17 7 0 10 #fcfcfc #000000 #000000;
#X obj 229 45 loadbang;
#X obj 89 157 playdir2~;
#X obj 41 23 inlet;
#X obj 84 235 throw~ drums;
#X msg 189 125 \$1/sounds/ai1;
#X obj 89 182 *~ 2.5;
#X connect 0 0 7 0;
#X connect 1 0 0 0;
#X connect 2 0 1 0;
#X connect 3 0 2 0;
#X connect 4 0 8 0;
#X connect 5 0 4 0;
#X connect 7 0 4 1;
#X connect 8 0 6 0;
#X restore 1368 259 pd ai;
#X connect 0 0 33 0;
#X connect 17 0 1 0;
#X connect 18 0 2 0;
#X connect 19 0 15 0;
#X connect 20 0 3 0;
#X connect 21 0 4 0;
#X connect 22 0 9 0;
#X connect 23 0 10 0;
#X connect 24 0 5 0;
#X connect 25 0 6 0;
#X connect 26 0 7 0;
#X connect 27 0 8 0;
#X connect 28 0 13 0;
#X connect 29 0 14 0;
#X connect 30 0 11 0;
#X connect 31 0 12 0;
#X connect 32 0 16 0;
#X connect 33 0 17 0;
#X connect 33 1 18 0;
#X connect 33 2 19 0;
#X connect 33 3 20 0;
#X connect 33 4 21 0;
#X connect 33 5 22 0;
#X connect 33 6 23 0;
#X connect 33 7 24 0;
#X connect 33 8 25 0;
#X connect 33 9 26 0;
#X connect 33 10 27 0;
#X connect 33 11 28 0;
#X connect 33 12 29 0;
#X connect 33 13 30 0;
#X connect 33 14 31 0;
#X connect 33 15 32 0;
#X connect 33 16 34 0;
#X connect 34 0 35 0;
#X restore 109 756 pd drums;
#X obj 50 137 netreceive -u 6000;
#X obj 50 164 s message;
#X text 48 110 enable: pdsend 6000 localhost udp;
#N canvas -446 272 1920 993 chords_bass 0;
#X obj 382 48 inlet;
#X obj 196 336 squarepoly~;
#X obj 490 530 heavybass~, f 12;
#X floatatom 464 493 5 0 0 0 - - - 0;
#X listbox 482 288 20 0 0 0 - - - 0;
#X obj 202 208 chord_bank;
#X obj 197 390 throw~ chords;
#X obj 489 584 throw~ chords;
#X obj 196 78 route chords;
#X obj 201 180 channel;
#X obj 449 378 channel;
#X obj 445 345 route bass;
#X obj 463 468 quant;
#X floatatom 566 502 5 0 0 0 - - - 0;
#X obj 564 425 route sustain;
#X obj 563 453 channel;
#X obj 563 478 change;
#X floatatom 282 283 5 0 0 0 - - - 0;
#X obj 379 508 - 12;
#X obj 376 535 heavybass~, f 12;
#X obj 382 561 *~ 0.5;
#X obj 290 183 loadbang;
#X msg 290 208 400;
#X obj 473 49 inlet;
#X obj 197 363 *~ 0.33;
#X obj 490 555 *~ 0.5;
#X connect 0 0 8 0;
#X connect 0 0 11 0;
#X connect 1 0 24 0;
#X connect 2 0 25 0;
#X connect 3 0 2 0;
#X connect 3 0 18 0;
#X connect 4 0 12 1;
#X connect 5 0 1 0;
#X connect 5 1 4 0;
#X connect 8 0 9 0;
#X connect 9 0 5 0;
#X connect 10 0 12 0;
#X connect 11 0 10 0;
#X connect 11 0 14 0;
#X connect 12 0 3 0;
#X connect 13 0 2 3;
#X connect 13 0 2 1;
#X connect 14 0 15 0;
#X connect 15 0 16 0;
#X connect 16 0 13 0;
#X connect 17 0 1 1;
#X connect 18 0 19 0;
#X connect 19 0 20 0;
#X connect 20 0 25 0;
#X connect 21 0 22 0;
#X connect 22 0 17 0;
#X connect 23 0 17 0;
#X connect 24 0 6 0;
#X connect 25 0 7 0;
#X restore 184 758 pd chords_bass;
#X obj 27 727 r message;
#X obj 110 729 r message;
#X obj 185 730 r message;
#X obj 287 517 r message;
#X obj 105 552 route metro start stop;
#X obj 154 577 b;
#X obj 201 580 b;
#X msg 151 605 1;
#X msg 199 608 0;
#X obj 373 432 s message;
#X msg 367 319 start;
#X msg 417 321 stop;
#X obj 466 718 s message;
#X msg 414 489 clear;
#X msg 463 563 ai 11 -*2000;
#X msg 569 563 ai 1;
#X msg 576 592 ai 2;
#X msg 578 616 ai 4 -*7;
#X msg 557 647 ai 3 -*32;
#X msg 553 682 ai 3 -*2000;
#X msg 484 496 ai 5;
#X msg 426 349 clear;
#X obj 497 309 loadbang;
#X floatatom 271 722 5 0 0 0 - - - 0;
#X msg 497 336 120;
#X obj 271 665 loadbang;
#X msg 271 690 256;
#X obj 364 293 loadbang;
#X obj 193 295 s randomize;
#X obj 200 260 bng 20 250 50 0 empty empty empty 0 -10 0 12 #fcfcfc #000000 #000000;
#N canvas 627 308 450 300 chord_patterns 0;
#X obj 97 861 s message;
#X msg 174 206 chords 1 -*15 2 -*15 3 -*15 0 -*15;
#X msg 187 242 chords 4 -*15 5 -*15 6 -*15 6 -*15;
#X msg 472 216 chords -;
#X msg 200 286 chords 7 -*15 8 -*15 9 -*15 10 -*15;
#X msg 208 321 chords 11 -*15 12 -*15 13 -*15 12 -*15;
#X msg 216 351 chords 15 -*15 16 -*15 17 -*15 17 -*15;
#X msg 216 383 chords 18 -*15 19 -*15 20 -*15 19 -*15;
#X msg 221 455 chords 29 -*15 30 -*15 30 -*15 30 -*15;
#X msg 220 697 chords 1 -*15 2 -*15 3 -*15 0 -*15 1 -*15 2 -*15 3 -*15 0 -*15 1 -*15 2 -*15 3 -*15 0 -*15 1 -*15 2 -*15 3 -*15 0 -*15 4 -*15 5 -*15 6 -*15 6 -*15 4 -*15 5 -*15 6 -*15 6 -*15 4 -*15 5 -*15 6 -*15 6 -*15 4 -*15 5 -*15 6 -*15 6 -*15;
#X msg 217 414 chords 27 -*15 27 -*15 26 -*15 27 -*15;
#X msg 244 770 chords 18 -*15 19 -*15 20 -*15 19 -*15 18 -*15 19 -*15 20 -*15 19 -*15 18 -*15 19 -*15 20 -*15 19 -*15 27 -*15 27 -*15 26 -*15 27 -*15 27 -*15 27 -*15 26 -*15 27 -*15 27 -*15 27 -*15 26 -*15 27 -*15;
#X msg 231 491 chords 79 -*7 78 -*3 70 -*3 -*15;
#X msg 229 541 chords 79 -*5 78 -*7 78 -*5 78 -*3;
#X msg 228 591 chords 1 -*2 1 -*2 1 -*2 1 -*2 1 -*2 1 -*2 1 -*2 1 -*2 1 -*2 1 -*2 2 -*2 2 -*2 3 -*2 4 -*2, f 92;
#X msg 218 628 chords 4 -*2 4 -*2 4 -*2 4 -*2 4 -*2 5 -*2 5 -*2 5 -*2 5 -*2 6 -*2 5 -*2 2 -*2 3 -*2 4 -*2, f 92;
#X msg 202 661 chords 50*11 51*30 52*15 54*15 55*30;
#X msg 152 165 chords 1 -*2 2 -*2 3 -*2 0 -*2 -*15 4 -*2 4 -*2 4 -*2 4 -*2;
#X obj 134 54 bng 20 250 50 0 empty empty empty 0 -10 0 12 #fcfcfc #000000 #000000;
#X obj 136 83 random 16;
#X obj 130 115 sel 0 1 2 3 4 5 6 7 8 9 10 11 12 13 14 15 16, f 52;
#X obj 147 16 r randomize;
#X connect 1 0 0 0;
#X connect 2 0 0 0;
#X connect 3 0 0 0;
#X connect 4 0 0 0;
#X connect 5 0 0 0;
#X connect 6 0 0 0;
#X connect 7 0 0 0;
#X connect 8 0 0 0;
#X connect 9 0 0 0;
#X connect 10 0 0 0;
#X connect 11 0 0 0;
#X connect 12 0 0 0;
#X connect 13 0 0 0;
#X connect 14 0 0 0;
#X connect 15 0 0 0;
#X connect 16 0 0 0;
#X connect 17 0 0 0;
#X connect 18 0 19 0;
#X connect 19 0 20 0;
#X connect 20 0 17 0;
#X connect 20 1 1 0;
#X connect 20 2 2 0;
#X connect 20 3 4 0;
#X connect 20 4 5 0;
#X connect 20 5 6 0;
#X connect 20 6 7 0;
#X connect 20 7 10 0;
#X connect 20 8 8 0;
#X connect 20 9 12 0;
#X connect 20 10 13 0;
#X connect 20 11 14 0;
#X connect 20 12 15 0;
#X connect 20 13 16 0;
#X connect 20 14 9 0;
#X connect 20 15 11 0;
#X connect 20 16 3 0;
#X connect 21 0 18 0;
#X restore 362 90 pd chord_patterns;
#X obj 339 670 r randomize;
#X obj 315 702 random 2000;
#X obj 239 148 key;
#X obj 198 221 b;
#N canvas 735 477 450 300 bass_pattern 0;
#X msg 117 314 bass 40 41 42 45 49 48;
#X obj 96 407 s message;
#X msg 116 279 bass 45 46 47 48 49 -*15 50 52 56 39 -*15;
#X msg 47 305 bass -;
#X msg 123 350 bass 40 -*3;
#X msg 112 245 bass 50*5 -*15 61 - 63 65 69 -*7;
#X msg 220 352 bass -*1 40 -*1;
#X msg 212 384 bass -*1 50 -*1 52 -*1 61 63 65 67 -*11;
#X obj 144 152 sel 0 1 2 3 4 5 6;
#X obj 149 55 bng 20 250 50 0 empty empty empty 0 -10 0 12 #fcfcfc #000000 #000000;
#X obj 145 109 random 7;
#X obj 149 23 r randomize;
#X connect 0 0 1 0;
#X connect 2 0 1 0;
#X connect 3 0 1 0;
#X connect 4 0 1 0;
#X connect 5 0 1 0;
#X connect 6 0 1 0;
#X connect 7 0 1 0;
#X connect 8 0 5 0;
#X connect 8 1 2 0;
#X connect 8 2 0 0;
#X connect 8 3 4 0;
#X connect 8 4 6 0;
#X connect 8 5 7 0;
#X connect 8 6 3 0;
#X connect 9 0 10 0;
#X connect 10 0 8 0;
#X connect 11 0 9 0;
#X restore 361 63 pd bass_pattern;
#N canvas -516 427 1920 993 drum_patterns 0;
#X obj 163 625 s message;
#X msg 215 241 kick 5 -*9 5 -*5 \, snare -*4 9 -*3 \, clap -*4 3 -*3 \;;
#X msg 224 268 hihat 6 -*3;
#X msg 228 293 hihat2 -*11 1 2 3 4;
#X msg 236 315 hihat3 -*11 [ 1 - 2 - 3*4 4 ];
#X msg 245 343 wine-glass -*31 [ 7 4 9 3*11 ];
#X msg 247 368 snare -*4 6 -*3;
#X msg 260 396 cymbal 2 -*15;
#X msg 279 446 misc 0 -*133;
#X msg 288 477 openhihat -*3 4 -*4;
#X msg 272 419 cymbal2 11 -*3;
#X msg 296 504 perc -*11 [ 1 2 3 4 5 6 7 8 ];
#X msg 307 532 perc3 -*33 [ 1 2 3 4 5 6 7 8 ];
#X msg 315 561 modular 3 -*22;
#X msg 345 588 fx 1 -*222;
#X obj 487 443 s message;
#X obj 572 885 s message;
#X msg 632 655 clap -*4 1 -*3;
#X msg 619 629 openhihat -*2 1 -*1;
#X msg 641 679 snare -*2 1 -*13;
#X msg 653 706 hihat -*11 [ 9 9 8 4 7 2 4 ];
#X msg 667 733 hihat2 -*22 [ 9*5 9 8 4 7 2 4 ];
#X msg 681 758 hihat3 0 -*7;
#X msg 690 785 perc 0 -*33 1 2 3 4 5 6;
#X msg 707 835 modular 19 -*15 7 -*15;
#X msg 696 809 perc2 5 -*31 5*11;
#X msg 710 863 fx 9*11 -*59;
#X obj 879 546 s message;
#X obj 880 845 s message;
#X msg 976 653 clap -*4 1 -*3;
#X msg 963 627 openhihat -*2 1 -*1;
#X msg 985 677 snare -*2 1 -*13;
#X msg 1011 731 hihat2 -*22 [ 9*5 9 8 4 7 2 4 ];
#X msg 1030 756 hihat3 0 -*7;
#X msg 1034 783 perc 0 -*33 1 2 3 4 5 6;
#X msg 1051 833 modular 19 -*15 7 -*15;
#X msg 612 603 kick 4 -*15;
#X msg 956 601 kick 5 - - - - - 5 - 5 - - - - - -;
#X msg 948 562 kick 5 - - - - - - 5 - 5 - 5 - - - -;
#X msg 997 704 hihat 4 4 -*7;
#X msg 1054 861 fx 11*11 -*59;
#X msg 1040 807 perc2 5 -*31 5*11 -*2 10 12 40;
#X obj 1284 767 s message;
#X msg 1116 688 cymbal2 2 -*15;
#X msg 489 346 kick 5 -*9 5 -*5 \, snare -*4 9 -*3 \, clap -*4 3 -*3 \, hihat 6 -*3 \, hihat2 -*11 1 2 3 4 \, hihat3 -*11 [ 1 - 2 - 3*4 4 ] \, wine-glass -*31 [ 7 4 9 3*11 ] \, snare -*4 6 -*3 \, cymbal 2 -*15 \, cymbal2 11 -*3 \, misc 0 -*133 \, openhihat -*3 4 -*4 \, perc -*11 [ 1 2 3 4 5 6 7 8 ] \, perc3 -*33 [ 1 2 3 4 5 6 7 8 ] \, modular 3 -*22 \, fx 1 -*222 \;;
#X msg 879 466 kick 4 -*3 \, openhihat -*2 1 -*1 \, clap -*4 1 -*3 \, snare -*2 1 -*13 \, hihat -*11 [ 9 9 8 4 7 2 4 ] \, hihat2 -*22 [ 9*5 9 8 4 7 2 4 ] \, hihat3 0 -*7 \, perc 0 -*33 1 2 3 4 5 6 \, perc2 5 -*31 5*11 \, modular 19 -*15 7 -*15 \;;
#X msg 1292 296 kick 5 -*5 5 - 5 -*6 \, openhihat -*2 1 -*1 \, clap -*4 1 -*3 \, snare -*2 1 -*13 \, hihat 4 4 -*7 \, hihat2 -*22 [ 9*5 9 8 4 7 2 4 ] \, hihat3 0 -*7 \, perc 0 -*33 1 2 3 4 5 6 \, perc2 5 -*31 5*11 -*2 10 12 40 \, modular 19 -*15 7 -*15 \, fx 11*11 -*59 \, cymbal 5 -*30 \, cymbal2 9 -*15 \;;
#X msg 586 559 kick 4 -*3;
#X obj 384 51 r randomize;
#X msg 1304 212 kick - \, openhihat - \, clap - \, snare - \, hihat - \, hihat2 - \, hihat3 - \, perc - \, perc2 - \, modular - \, fx - \, cymbal - \, cymbal2 - \;;
#X obj 409 173 sel 0 1 2 3 4 5 6 7 8 9 10 11 12 13 14 15 16 17 18 19 20 21 22 23 24 25 26 27 28 29 30 31 32 33 34 35 36 37 38 39 40 41 42, f 133;
#X obj 398 118 random 43;
#X connect 1 0 0 0;
#X connect 2 0 0 0;
#X connect 3 0 0 0;
#X connect 4 0 0 0;
#X connect 5 0 0 0;
#X connect 6 0 0 0;
#X connect 7 0 0 0;
#X connect 8 0 0 0;
#X connect 9 0 0 0;
#X connect 10 0 0 0;
#X connect 11 0 0 0;
#X connect 12 0 0 0;
#X connect 13 0 0 0;
#X connect 14 0 0 0;
#X connect 17 0 16 0;
#X connect 18 0 16 0;
#X connect 19 0 16 0;
#X connect 20 0 16 0;
#X connect 21 0 16 0;
#X connect 22 0 16 0;
#X connect 23 0 16 0;
#X connect 24 0 16 0;
#X connect 25 0 16 0;
#X connect 26 0 16 0;
#X connect 29 0 28 0;
#X connect 30 0 28 0;
#X connect 31 0 28 0;
#X connect 32 0 28 0;
#X connect 33 0 28 0;
#X connect 34 0 28 0;
#X connect 35 0 28 0;
#X connect 36 0 16 0;
#X connect 37 0 28 0;
#X connect 38 0 28 0;
#X connect 39 0 28 0;
#X connect 40 0 28 0;
#X connect 41 0 28 0;
#X connect 43 0 28 0;
#X connect 44 0 15 0;
#X connect 45 0 27 0;
#X connect 46 0 42 0;
#X connect 47 0 16 0;
#X connect 48 0 51 0;
#X connect 50 0 1 0;
#X connect 50 1 2 0;
#X connect 50 2 3 0;
#X connect 50 3 4 0;
#X connect 50 4 5 0;
#X connect 50 5 6 0;
#X connect 50 6 7 0;
#X connect 50 7 10 0;
#X connect 50 8 8 0;
#X connect 50 9 9 0;
#X connect 50 10 11 0;
#X connect 50 11 12 0;
#X connect 50 12 13 0;
#X connect 50 13 14 0;
#X connect 50 14 44 0;
#X connect 50 15 47 0;
#X connect 50 16 36 0;
#X connect 50 17 18 0;
#X connect 50 18 17 0;
#X connect 50 19 19 0;
#X connect 50 20 20 0;
#X connect 50 21 21 0;
#X connect 50 22 22 0;
#X connect 50 23 23 0;
#X connect 50 24 25 0;
#X connect 50 25 24 0;
#X connect 50 26 26 0;
#X connect 50 27 45 0;
#X connect 50 28 38 0;
#X connect 50 29 37 0;
#X connect 50 30 30 0;
#X connect 50 31 29 0;
#X connect 50 32 31 0;
#X connect 50 33 39 0;
#X connect 50 34 32 0;
#X connect 50 35 43 0;
#X connect 50 36 33 0;
#X connect 50 37 34 0;
#X connect 50 38 41 0;
#X connect 50 39 35 0;
#X connect 50 40 40 0;
#X connect 50 41 46 0;
#X connect 50 42 49 0;
#X connect 51 0 50 0;
#X restore 357 119 pd drum_patterns;
#N canvas 399 195 450 300 vj_pattern 0;
#X msg 338 192 vj skip;
#X obj 331 319 s message;
#X msg 253 197 vj puzzle;
#X msg 470 271 vj puzzle -*11 [ 1 - 2 - 3*4 4 ];
#X msg 302 236 vj gain;
#X msg 463 179 vj gain level 40;
#X msg 360 159 vj clear;
#X msg 86 184 vj spikey;
#X msg 117 217 vj spikey x 40;
#X msg 137 255 vj spikey y 40;
#X msg 148 283 vj spikey z 4;
#X msg 158 318 vj spikey material;
#X msg 168 355 vj spikey mode;
#X obj 124 428 s message;
#X obj 430 522 s message;
#X msg 443 335 vj part mat;
#X msg 477 410 vj part z 20 30 40 50;
#X msg 470 386 vj part y 20 30 40 50 60;
#X msg 460 364 vj part x 40;
#X obj 770 687 s message;
#X msg 795 388 vj luma;
#X obj 661 415 s message;
#X msg 668 384 vj movement;
#X msg 890 472 vj luma gap 11;
#X msg 887 444 vj luma gap 22;
#X msg 889 505 vj luma off 111 200;
#X msg 894 532 vj luma off 111 200 300 500;
#X msg 488 458 vj part z 20 30 40 50 111 2000;
#X msg 890 411 vj luma gap 5;
#X msg 888 378 vj luma gap 11;
#X msg 958 555 vj luma off 11 -*40 22 -*22;
#X msg 458 156 vj gain level 77;
#X msg 470 207 vj gain level 5;
#X msg 483 233 vj gain level 1;
#X msg 857 342 vj luma gap 111;
#X msg 743 436 vj luma fill;
#X msg 954 584 vj luma off 11;
#X msg 967 611 vj luma off 111;
#X msg 977 684 vj luma off 1111;
#X msg 973 649 vj luma off 500;
#X obj 137 109 sel 0 1 2 3 4 5 6 7 8 9 10 11 12 13 14 15 16 17 18 19 20 21 22 23 24 25 26 27 28 29 30 31 32 33, f 132;
#X obj 139 36 r vj_randomize;
#X obj 139 61 b;
#X obj 140 82 random 34;
#X connect 0 0 1 0;
#X connect 2 0 1 0;
#X connect 3 0 1 0;
#X connect 4 0 1 0;
#X connect 5 0 1 0;
#X connect 6 0 1 0;
#X connect 7 0 13 0;
#X connect 8 0 13 0;
#X connect 9 0 13 0;
#X connect 10 0 13 0;
#X connect 11 0 13 0;
#X connect 12 0 13 0;
#X connect 15 0 14 0;
#X connect 16 0 14 0;
#X connect 17 0 14 0;
#X connect 18 0 14 0;
#X connect 20 0 19 0;
#X connect 22 0 21 0;
#X connect 23 0 19 0;
#X connect 24 0 19 0;
#X connect 25 0 19 0;
#X connect 26 0 19 0;
#X connect 27 0 14 0;
#X connect 28 0 19 0;
#X connect 29 0 19 0;
#X connect 30 0 19 0;
#X connect 31 0 1 0;
#X connect 32 0 1 0;
#X connect 33 0 1 0;
#X connect 34 0 19 0;
#X connect 35 0 19 0;
#X connect 36 0 19 0;
#X connect 37 0 19 0;
#X connect 38 0 19 0;
#X connect 39 0 19 0;
#X connect 40 0 7 0;
#X connect 40 1 8 0;
#X connect 40 2 9 0;
#X connect 40 3 10 0;
#X connect 40 4 11 0;
#X connect 40 5 12 0;
#X connect 40 6 2 0;
#X connect 40 7 4 0;
#X connect 40 8 0 0;
#X connect 40 9 6 0;
#X connect 40 10 31 0;
#X connect 40 11 5 0;
#X connect 40 12 32 0;
#X connect 40 13 3 0;
#X connect 40 14 15 0;
#X connect 40 15 18 0;
#X connect 40 16 17 0;
#X connect 40 17 16 0;
#X connect 40 18 27 0;
#X connect 40 19 22 0;
#X connect 40 20 35 0;
#X connect 40 21 20 0;
#X connect 40 22 34 0;
#X connect 40 23 29 0;
#X connect 40 24 28 0;
#X connect 40 25 24 0;
#X connect 40 26 23 0;
#X connect 40 27 25 0;
#X connect 40 28 26 0;
#X connect 40 29 30 0;
#X connect 40 30 36 0;
#X connect 40 31 37 0;
#X connect 40 32 39 0;
#X connect 40 33 38 0;
#X connect 41 0 42 0;
#X connect 42 0 43 0;
#X connect 43 0 40 0;
#X restore 358 148 pd vj_pattern;
#X obj 246 221 b;
#X obj 280 225 bng 20 250 50 0 empty empty empty 0 -10 0 12 #fcfcfc #000000 #000000;
#X obj 248 268 s vj_randomize;
#X floatatom 193 59 5 0 0 0 - - - 0;
#X obj 244 172 sel 113 119 101;
#X obj 379 187 b;
#X obj 379 237 + 88;
#X obj 379 212 random 180;
#X connect 0 0 1 0;
#X connect 0 0 1 1;
#X connect 2 0 0 0;
#X connect 3 0 9 0;
#X connect 5 0 6 0;
#X connect 6 0 7 0;
#X connect 7 0 8 0;
#X connect 9 0 4 0;
#X connect 10 0 0 0;
#X connect 13 0 14 0;
#X connect 14 0 13 0;
#X connect 16 0 13 1;
#X connect 17 0 13 0;
#X connect 18 0 33 0;
#X connect 19 0 41 0;
#X connect 20 0 13 1;
#X connect 21 0 9 1;
#X connect 22 0 38 0;
#X connect 23 0 22 0;
#X connect 25 0 26 0;
#X connect 29 0 12 0;
#X connect 30 0 24 0;
#X connect 31 0 28 0;
#X connect 32 0 5 0;
#X connect 33 0 21 0;
#X connect 33 1 34 0;
#X connect 33 2 35 0;
#X connect 34 0 36 0;
#X connect 35 0 37 0;
#X connect 36 0 3 0;
#X connect 37 0 3 0;
#X connect 39 0 38 0;
#X connect 40 0 38 0;
#X connect 42 0 41 0;
#X connect 43 0 41 0;
#X connect 44 0 41 0;
#X connect 45 0 41 0;
#X connect 46 0 41 0;
#X connect 47 0 41 0;
#X connect 48 0 41 0;
#X connect 49 0 41 0;
#X connect 50 0 38 0;
#X connect 51 0 53 0;
#X connect 52 0 28 1;
#X connect 53 0 23 0;
#X connect 54 0 55 0;
#X connect 55 0 52 0;
#X connect 56 0 39 0;
#X connect 58 0 57 0;
#X connect 60 0 61 0;
#X connect 61 0 52 0;
#X connect 62 0 70 0;
#X connect 62 0 71 0;
#X connect 63 0 58 0;
#X connect 67 0 68 0;
#X connect 67 0 69 0;
#X connect 71 0 63 0;
#X connect 71 1 67 0;
#X connect 71 2 72 0;
#X connect 72 0 74 0;
#X connect 74 0 73 0;
