#N canvas 181 602 450 300 12;
#X obj 83 308 r clock;
#X obj 178 237 mixtape;
#X obj 83 338 js mseq2.js, f 14;
#X obj 178 166 list append;
#X obj 94 36 inlet;
#X obj 98 440 outlet;
#X obj 261 47 r to_all;
#X connect 0 0 2 0;
#X connect 1 0 2 1;
#X connect 2 0 5 0;
#X connect 3 0 1 0;
#X connect 4 0 3 0;
#X connect 6 0 1 0;
