#N canvas 1323 214 457 491 12;
#X msg 185 103 compile;
#X obj 161 135 js chord_bank.js;
#X obj 55 274 until;
#X obj 68 357 list store;
#X obj 89 241 t b b l;
#X obj 55 299 f;
#X obj 93 300 + 1;
#X msg 112 274 0, f 2;
#X msg 55 330 get \$1 1;
#X obj 68 382 outlet;
#X obj 43 33 inlet;
#X obj 180 385 outlet;
#X obj 186 53 inlet;
#X obj 186 78 b;
#X connect 0 0 1 0;
#X connect 1 0 4 0;
#X connect 1 0 11 0;
#X connect 2 0 5 0;
#X connect 3 0 9 0;
#X connect 3 1 2 1;
#X connect 4 0 2 0;
#X connect 4 1 7 0;
#X connect 4 2 3 1;
#X connect 5 0 6 0;
#X connect 5 0 8 0;
#X connect 6 0 5 1;
#X connect 7 0 5 1;
#X connect 8 0 3 0;
#X connect 10 0 1 0;
#X connect 12 0 13 0;
#X connect 13 0 0 0;
