#N canvas 985 252 696 736 12;
#X text 18 15 mixtape help;
#X obj 74 537 mixtape;
#X obj 74 562 print;
#X listbox 53 604 51 0 0 0 - - - 0;
#X msg 209 343 list - 1 -*4 [ 2 3 ]*9 -;
#X msg 145 129 scramble [1 - 2 3];
#X msg 153 157 scale2 [60 62 - 64];
#X msg 163 184 - [ 1 2 - 3 ]*3;
#X msg 170 211 [ 4 9 8 ];
#X msg 221 371 list [ 1 2 - 5 ];
#X msg 130 75 - 11;
#X msg 175 238 invert50 [60 62] repeat2 [1 2];
#X msg 182 264 scale2 [60 62] mirror [1 2];
#X msg 189 290 [60 62 64]*2 - [1 2 3]*2;
#X msg 199 316 repeat2 [60 62 - 64 - 7 7 7];
#X msg 224 398 offset2 [60 62 - 64];
#X msg 225 424 invert50 [60 62 64] [60 62 - 64];
#X msg 138 103 [60 - 62 64]*2;
#X msg 224 454 - - -*3 - 5 - - - 6*7 7 - - 8*3 -;
#X connect 1 0 3 0;
#X connect 4 0 1 0;
#X connect 5 0 1 0;
#X connect 6 0 1 0;
#X connect 7 0 1 0;
#X connect 8 0 1 0;
#X connect 9 0 1 0;
#X connect 10 0 1 0;
#X connect 11 0 1 0;
#X connect 12 0 1 0;
#X connect 13 0 1 0;
#X connect 14 0 1 0;
#X connect 15 0 1 0;
#X connect 16 0 1 0;
#X connect 17 0 1 0;
#X connect 18 0 1 0;
