#N canvas 272 229 600 423 12;
#X declare -path pdjs;
#X obj 12 11 declare -path pdjs;
#X msg 249 110 compile;
#X obj 43 201 js mixtape.js;
#X obj 44 234 route list;
#X obj 42 149 inlet;
#X obj 249 79 b;
#X obj 250 51 inlet;
#X obj 84 355 outlet;
#X obj 42 176 list prepend 0 -;
#X obj 44 262 list split 2;
#X connect 1 0 2 0;
#X connect 2 0 3 0;
#X connect 3 0 9 0;
#X connect 4 0 8 0;
#X connect 5 0 1 0;
#X connect 6 0 5 0;
#X connect 8 0 2 0;
#X connect 9 1 7 0;
