#N canvas 697 145 967 787 12;
#X declare -path pdjs;
#X obj 102 592 mseq, f 14;
#X obj 68 488 bng 20 250 50 0 empty empty empty 0 -10 0 12 #fcfcfc #000000 #000000;
#X obj 71 402 tgl 20 0 empty empty empty 0 -10 0 12 #fcfcfc #000000 #000000 0 1;
#X obj 71 464 metro 300;
#X obj 70 616 bng 20 250 50 0 empty empty empty 0 -10 0 12 #fcfcfc #000000 #000000;
#X msg 121 549 -;
#X listbox 202 692 73 0 0 0 - - - 0;
#X floatatom 102 617 5 0 0 0 - - - 0;
#X obj 332 623 js mseq2.js;
#X obj 245 623 js mseq2.js;
#X floatatom 245 648 5 0 0 0 - - - 0;
#X floatatom 332 648 5 0 0 0 - - - 0;
#X msg 423 495 compile;
#X msg 498 499 reset;
#X msg 393 402 list 1 - - -*3 5 - - - 6*7 7 - - 8*3 -;
#X msg 269 216 list - - - scramble [ 1 - - 2 3 4 ] - - - scramble [ 1 - - 2 3 ], f 66;
#X msg 242 183 list - 1 2 3 4 - 7*3 8 9 - - - 2 3 4 9 9;
#X msg 209 153 list 2 - 7*3 [ 2 2 ]*3 [ - - 9 - ]*1 - [ 2 3 4 9 9 ]*3;
#X msg 354 331 list - - - [ 1 2 3 ]*4 -;
#X msg 338 297 list - [ 1 2 3 ]*11 -;
#X msg 309 263 list - - -*3 - 5 - - - 6*7 7 - - 8*3 -;
#X obj 147 401 mixtape;
#X msg 366 363 list - [1 2 3 ]*3 - [ 9 8 7 ] -;
#X msg 141 32 list [ 1 2 3 ]*3;
#X msg 199 111 list 99;
#X msg 179 83 list - [2 3 4 5]*4;
#X msg 160 58 list - 4;
#X obj 12 11 declare -path pdjs;
#X connect 0 0 4 0;
#X connect 0 0 7 0;
#X connect 1 0 8 0;
#X connect 1 0 9 0;
#X connect 1 0 0 0;
#X connect 2 0 3 0;
#X connect 3 0 1 0;
#X connect 5 0 0 1;
#X connect 6 0 0 1;
#X connect 8 0 11 0;
#X connect 9 0 10 0;
#X connect 12 0 9 0;
#X connect 12 0 8 0;
#X connect 13 0 8 0;
#X connect 13 0 9 0;
#X connect 14 0 8 1;
#X connect 15 0 21 0;
#X connect 16 0 21 0;
#X connect 17 0 21 0;
#X connect 18 0 21 0;
#X connect 19 0 21 0;
#X connect 20 0 21 0;
#X connect 21 0 6 0;
#X connect 21 0 9 1;
#X connect 21 0 8 1;
#X connect 22 0 21 0;
#X connect 23 0 21 0;
#X connect 24 0 21 0;
#X connect 25 0 21 0;
#X connect 26 0 21 0;
