#N canvas 0 0 604 468 12;
#X floatatom 415 88 5 0 100 0 - - - 0;
#X obj 424 128 clip 0 100;
#X text 416 10 Rev level;
#X obj 101 221 *~;
#X obj 37 221 *~;
#X obj 139 371 hip~ 300;
#X obj 96 345 hip~ 300;
#X obj 96 313 rev3~ 90 75 3000 30;
#X obj 424 158 / 100;
#X obj 424 215 * 100;
#X floatatom 429 257 5 0 0 0 - - - 0;
#X obj 38 341 *~;
#X obj 64 315 *~;
#X obj 424 187 pow 0.2;
#X obj 151 209 expr 1 - $f1 / 3;
#X obj 153 235 pow 0.6;
#X obj 473 76 r lct-reverb;
#X obj 47 264 lop~ 7000;
#X obj 122 270 lop~ 7000;
#X obj 39 398 outlet~;
#X obj 64 76 inlet~;
#X text 198 3 Volume;
#X obj 203 197 line~;
#X obj 203 140 pow 2;
#X floatatom 288 166 5 0 0 0 - - - 0;
#X floatatom 296 115 5 0 0 0 - - - 0;
#X floatatom 296 138 5 0 0 0 - - - 0;
#X obj 203 168 pack 0 10;
#X obj 203 113 clip 0 1;
#X obj 203 82 * 0.95;
#X obj 424 32 loadbang;
#X msg 424 57 100;
#X obj 198 23 loadbang;
#X msg 198 48 1;
#X connect 0 0 1 0;
#X connect 1 0 8 0;
#X connect 3 0 12 0;
#X connect 3 0 18 0;
#X connect 4 0 11 0;
#X connect 4 0 17 0;
#X connect 5 0 19 0;
#X connect 6 0 19 0;
#X connect 7 0 6 0;
#X connect 7 1 5 0;
#X connect 8 0 13 0;
#X connect 9 0 7 2;
#X connect 9 0 10 0;
#X connect 11 0 19 0;
#X connect 13 0 9 0;
#X connect 13 0 14 0;
#X connect 14 0 15 0;
#X connect 15 0 12 1;
#X connect 15 0 11 1;
#X connect 16 0 1 0;
#X connect 17 0 7 0;
#X connect 18 0 7 1;
#X connect 20 0 4 0;
#X connect 20 0 3 0;
#X connect 22 0 3 1;
#X connect 22 0 4 1;
#X connect 23 0 24 0;
#X connect 23 0 27 0;
#X connect 25 0 23 1;
#X connect 25 0 26 0;
#X connect 27 0 22 0;
#X connect 28 0 23 0;
#X connect 29 0 28 0;
#X connect 30 0 31 0;
#X connect 31 0 0 0;
#X connect 32 0 33 0;
#X connect 33 0 29 0;
